<svg width="78" height="74" viewBox="0 0 78 74" fill="none" xmlns="http://www.w3.org/2000/svg">
<path d="M44.2061 58.5674V56.5674H42.2061V58.5674H44.2061ZM48.7446 58.5674V60.5674L48.7547 60.5674L48.7446 58.5674ZM50.9092 58.7896L50.4209 60.729L50.4289 60.731L50.4368 60.733L50.9092 58.7896ZM53.2832 60.4399L51.4753 61.2953L51.4809 61.307L51.4866 61.3187L53.2832 60.4399ZM53.3022 62.9473L51.4863 62.1091L51.4822 62.1181L53.3022 62.9473ZM52.4897 63.9565L51.2469 62.3895L51.2381 62.3966L52.4897 63.9565ZM51.0933 64.6548L50.5081 62.7423L50.5041 62.7435L51.0933 64.6548ZM47.875 64.915V62.915H45.875V64.915H47.875ZM47.875 68V70H49.875V68H47.875ZM44.2061 68H42.2061V70H44.2061V68ZM47.875 63.5312H45.875V65.5604L47.904 65.531L47.875 63.5312ZM48.6558 63.3979L49.3504 65.2734L49.3656 65.2678L49.3807 65.262L48.6558 63.3979ZM49.2334 63.0361L50.6281 64.4696L50.6379 64.46L50.6476 64.4503L49.2334 63.0361ZM49.5889 62.4775L47.7222 61.7596L47.7184 61.7694L47.7147 61.7793L49.5889 62.4775ZM49.2207 60.4653L47.8065 61.8795L47.8256 61.8987L47.8452 61.9172L49.2207 60.4653ZM48.6431 60.0972L47.9063 61.9566L47.9182 61.9612L48.6431 60.0972ZM47.875 59.9512L47.9338 57.952L45.875 57.8915V59.9512H47.875ZM44.2061 60.5674H48.7446V56.5674H44.2061V60.5674ZM48.7547 60.5674C49.478 60.5637 50.0234 60.629 50.4209 60.729L51.3974 56.8501C50.5847 56.6455 49.687 56.5626 48.7345 56.5674L48.7547 60.5674ZM50.4368 60.733C50.8702 60.8383 51.1207 60.9656 51.2561 61.0617L53.5711 57.7996C52.9193 57.3371 52.1669 57.037 51.3815 56.8461L50.4368 60.733ZM51.2561 61.0617C51.4009 61.1645 51.4513 61.2444 51.4753 61.2953L55.0911 59.5846C54.7427 58.8483 54.2133 58.2554 53.5711 57.7996L51.2561 61.0617ZM51.4866 61.3187C51.5299 61.4071 51.5688 61.5357 51.5688 61.7412H55.5688C55.5688 60.9903 55.4174 60.2514 55.0798 59.5612L51.4866 61.3187ZM51.5688 61.7412C51.5688 61.8671 51.5443 61.9835 51.4863 62.1091L55.1182 63.7854C55.4156 63.1409 55.5688 62.4532 55.5688 61.7412H51.5688ZM51.4822 62.1181C51.4554 62.177 51.3978 62.2699 51.247 62.3895L53.7325 65.5235C54.318 65.0592 54.8021 64.4792 55.1223 63.7764L51.4822 62.1181ZM51.2381 62.3966C51.1176 62.4933 50.8957 62.6237 50.5081 62.7423L51.6784 66.5673C52.425 66.3388 53.134 66.0038 53.7413 65.5165L51.2381 62.3966ZM50.5041 62.7435C50.1822 62.8428 49.7202 62.915 49.0811 62.915V66.915C49.9992 66.915 50.8787 66.8138 51.6824 66.566L50.5041 62.7435ZM49.0811 62.915H47.875V66.915H49.0811V62.915ZM45.875 64.915V68H49.875V64.915H45.875ZM47.875 66H44.2061V70H47.875V66ZM46.2061 68V58.5674H42.2061V68H46.2061ZM47.904 65.531C48.3795 65.5241 48.8711 65.451 49.3504 65.2734L47.9611 61.5225C47.9834 61.5142 47.9545 61.5299 47.846 61.5315L47.904 65.531ZM49.3807 65.262C49.8285 65.0878 50.2572 64.8305 50.6281 64.4696L47.8387 61.6027C47.8658 61.5763 47.891 61.5577 47.9099 61.5459C47.9283 61.5343 47.937 61.5316 47.9309 61.5339L49.3807 65.262ZM50.6476 64.4503C51.0153 64.0827 51.2866 63.6494 51.463 63.1758L47.7147 61.7793C47.7213 61.7616 47.7331 61.7355 47.7524 61.7053C47.7717 61.6749 47.7946 61.6465 47.8192 61.6219L50.6476 64.4503ZM51.4556 63.1955C51.6404 62.7149 51.7158 62.2215 51.7158 61.7412H47.7158C47.7158 61.7725 47.7134 61.7874 47.7132 61.7886C47.713 61.7894 47.7149 61.7785 47.7222 61.7596L51.4556 63.1955ZM51.7158 61.7412C51.7158 61.2618 51.6393 60.768 51.4508 60.2874L47.7269 61.7478C47.7179 61.7246 47.7148 61.7095 47.7142 61.706C47.7136 61.7029 47.7158 61.7137 47.7158 61.7412H51.7158ZM51.4508 60.2874C51.2641 59.8113 50.9801 59.3771 50.5962 59.0134L47.8452 61.9172C47.817 61.8905 47.7911 61.8598 47.7692 61.8271C47.7476 61.7946 47.7343 61.7666 47.7269 61.7478L51.4508 60.2874ZM50.6349 59.0511C50.2621 58.6783 49.8271 58.4117 49.368 58.2332L47.9182 61.9612C47.9191 61.9616 47.906 61.9565 47.8839 61.9424C47.8614 61.928 47.8342 61.9073 47.8065 61.8795L50.6349 59.0511ZM49.3798 58.2378C48.9021 58.0485 48.4102 57.966 47.9338 57.952L47.8162 61.9503C47.9153 61.9532 47.9354 61.9681 47.9063 61.9565L49.3798 58.2378ZM45.875 59.9512V63.5312H49.875V59.9512H45.875ZM54.5591 65.1689L52.7818 64.2517L54.5591 65.1689ZM56.0635 64.0264L56.6485 65.9389L56.6587 65.9358L56.669 65.9325L56.0635 64.0264ZM58.5137 64.0137L57.9839 65.9422L57.9963 65.9456L58.0088 65.9489L58.5137 64.0137ZM59.4912 64.4072L58.4461 66.1124L61.4912 67.9788V64.4072H59.4912ZM59.3896 63.6011L57.4772 64.1865L57.4827 64.2042L57.4884 64.2219L59.3896 63.6011ZM58.5708 62.8076L58.0214 64.7307L58.0315 64.7335L58.5708 62.8076ZM57.0347 62.7886L57.3388 64.7653L57.3536 64.763L57.3684 64.7605L57.0347 62.7886ZM56.2729 62.979L54.5137 63.9303L55.3346 65.4484L56.9564 64.8586L56.2729 62.979ZM55.8096 62.1221L55.0464 60.2734L52.9943 61.1206L54.0503 63.0734L55.8096 62.1221ZM57.2378 61.7158L57.5611 63.6896L57.5748 63.6872L57.2378 61.7158ZM60.5513 61.7856L60.0587 63.724L60.068 63.7264L60.0774 63.7287L60.5513 61.7856ZM61.8589 62.3633L60.6745 63.9749L60.6854 63.9829L60.6964 63.9907L61.8589 62.3633ZM62.665 63.3281L60.8532 64.175L60.8568 64.1826L62.665 63.3281ZM62.938 68V70H64.938V68H62.938ZM59.7197 68L57.8345 68.6677L58.3063 70H59.7197V68ZM59.5039 67.3906L61.3892 66.7229L60.4706 64.1294L58.287 65.8034L59.5039 67.3906ZM55.9619 67.9619L55.3367 69.8617L55.351 69.8664L55.3654 69.8709L55.9619 67.9619ZM54.5527 66.8574L52.7697 67.7635L52.7759 67.7755L54.5527 66.8574ZM58.1328 66.4448L56.7392 67.8794L56.7499 67.8898L56.7608 67.9L58.1328 66.4448ZM59.1294 66.5908L59.7434 68.4942L59.7709 68.4854L59.7982 68.4757L59.1294 66.5908ZM59.4912 66.3877L60.7479 67.9436L61.4912 67.3432V66.3877H59.4912ZM59.4912 65.3149H61.4912V64.1826L60.5202 63.6L59.4912 65.3149ZM58.1328 65.3403L59.5048 66.7955L59.5061 66.7944L58.1328 65.3403ZM56.356 66.0195C56.356 66.0166 56.3561 66.0258 56.352 66.0429C56.3479 66.0603 56.3418 66.0757 56.3363 66.0862L52.7818 64.2517C52.4953 64.8069 52.356 65.4062 52.356 66.0195H56.356ZM56.3363 66.0862C56.3348 66.0892 56.3331 66.0921 56.3314 66.0945C56.3298 66.0969 56.3289 66.098 56.3291 66.0977C56.3293 66.0975 56.3375 66.0878 56.3599 66.0706L53.9262 62.8962C53.4583 63.2549 53.0634 63.7061 52.7818 64.2517L56.3363 66.0862ZM56.3599 66.0706C56.3942 66.0443 56.4778 65.9911 56.6485 65.9389L55.4785 62.1138C54.9297 62.2817 54.3997 62.5332 53.9262 62.8962L56.3599 66.0706ZM56.669 65.9325C56.8017 65.8903 56.9952 65.855 57.2695 65.855V61.855C56.6552 61.855 56.0446 61.9339 55.458 62.1202L56.669 65.9325ZM57.2695 65.855C57.5547 65.855 57.7895 65.8888 57.9839 65.9422L59.0435 62.0851C58.4676 61.9269 57.873 61.855 57.2695 61.855V65.855ZM58.0088 65.9489C58.2627 66.0151 58.3939 66.0805 58.4461 66.1124L60.5363 62.702C60.0637 62.4124 59.5433 62.2153 59.0185 62.0784L58.0088 65.9489ZM61.4912 64.4072V64.3564H57.4912V64.4072H61.4912ZM61.4912 64.3564C61.4912 63.9195 61.4427 63.4454 61.2909 62.9803L57.4884 64.2219C57.4791 64.1932 57.4803 64.1872 57.4837 64.2119C57.4869 64.2364 57.4912 64.2832 57.4912 64.3564H61.4912ZM61.302 63.0156C61.1547 62.5342 60.8954 62.0564 60.4829 61.6568L57.6997 64.5297C57.5581 64.3925 57.4977 64.2533 57.4772 64.1865L61.302 63.0156ZM60.4829 61.6568C60.0717 61.2584 59.5888 61.0157 59.1101 60.8817L58.0315 64.7335C57.976 64.718 57.8401 64.6657 57.6997 64.5297L60.4829 61.6568ZM59.1202 60.8846C58.6883 60.7611 58.2491 60.7188 57.8345 60.7188V64.7188C57.9075 64.7188 57.9589 64.7226 57.9916 64.7266C58.0244 64.7305 58.0326 64.7339 58.0214 64.7307L59.1202 60.8846ZM57.8345 60.7188C57.456 60.7188 57.0775 60.7529 56.701 60.8166L57.3684 64.7605C57.542 64.7312 57.6967 64.7188 57.8345 64.7188V60.7188ZM56.7306 60.8118C56.3418 60.8716 55.9592 60.965 55.5895 61.0994L56.9564 64.8586C57.0522 64.8238 57.1774 64.7901 57.3388 64.7653L56.7306 60.8118ZM58.0322 62.0277L57.5688 61.1708L54.0503 63.0734L54.5137 63.9303L58.0322 62.0277ZM56.5728 63.9707C56.8931 63.8385 57.2216 63.7451 57.5611 63.6895L56.9145 59.7421C56.2722 59.8473 55.6485 60.0248 55.0464 60.2734L56.5728 63.9707ZM57.5748 63.6872C57.9537 63.6224 58.3508 63.5889 58.7676 63.5889V59.5889C58.1349 59.5889 57.5121 59.6399 56.9008 59.7444L57.5748 63.6872ZM58.7676 63.5889C59.3157 63.5889 59.7391 63.6428 60.0587 63.724L61.0438 59.8472C60.3309 59.6661 59.5652 59.5889 58.7676 59.5889V63.5889ZM60.0774 63.7287C60.3985 63.807 60.5786 63.9044 60.6745 63.9749L63.0433 60.7517C62.4367 60.3059 61.745 60.0182 61.0252 59.8426L60.0774 63.7287ZM60.6964 63.9907C60.7767 64.0481 60.8194 64.1027 60.8532 64.175L64.4769 62.4813C64.1467 61.7749 63.652 61.1863 63.0214 60.7358L60.6964 63.9907ZM60.8568 64.1826C60.8876 64.2479 60.938 64.3972 60.938 64.6865H64.938C64.938 63.9349 64.8064 63.1785 64.4733 62.4737L60.8568 64.1826ZM60.938 64.6865V68H64.938V64.6865H60.938ZM62.938 66H59.7197V70H62.938V66ZM61.605 67.3323L61.3892 66.7229L57.6187 68.0583L57.8345 68.6677L61.605 67.3323ZM58.287 65.8034C58.2738 65.8136 58.23 65.8445 58.1415 65.8898L59.965 69.45C60.2235 69.3176 60.4801 69.1624 60.7208 68.9778L58.287 65.8034ZM58.1415 65.8898C58.0719 65.9255 57.9801 65.9647 57.8611 66.0036L59.1027 69.806C59.3985 69.7094 59.6876 69.5921 59.965 69.45L58.1415 65.8898ZM57.8611 66.0036C57.7585 66.0371 57.6386 66.0668 57.4988 66.0897L58.1448 70.0372C58.4704 69.9839 58.7906 69.9079 59.1027 69.806L57.8611 66.0036ZM57.4988 66.0897C57.3806 66.1091 57.2457 66.1206 57.0918 66.1206V70.1206C57.4457 70.1206 57.7975 70.0941 58.1448 70.0372L57.4988 66.0897ZM57.0918 66.1206C56.846 66.1206 56.6744 66.0892 56.5585 66.053L55.3654 69.8709C55.9265 70.0462 56.5081 70.1206 57.0918 70.1206V66.1206ZM56.5872 66.0622C56.4374 66.0129 56.3669 65.9656 56.3406 65.9449L53.8693 69.0902C54.3171 69.442 54.8178 69.6909 55.3367 69.8617L56.5872 66.0622ZM56.3406 65.9449C56.333 65.939 56.3283 65.9347 56.3258 65.9323C56.3234 65.9299 56.3227 65.929 56.3232 65.9296C56.3237 65.9302 56.3249 65.9317 56.3263 65.9338C56.3277 65.9359 56.3288 65.9379 56.3296 65.9394L52.7759 67.7755C53.0457 68.2976 53.4197 68.7369 53.8693 69.0902L56.3406 65.9449ZM56.3357 65.9513C56.3419 65.9634 56.3481 65.9797 56.3522 65.9971C56.3562 66.0142 56.356 66.0231 56.356 66.0195H52.356C52.356 66.6227 52.4905 67.2139 52.7698 67.7635L56.3357 65.9513ZM55.9106 65.8862C55.9106 66.5917 56.1601 67.3168 56.7392 67.8794L59.5264 65.0103C59.6482 65.1286 59.7542 65.2812 59.8246 65.4581C59.8933 65.6309 59.9106 65.7826 59.9106 65.8862H55.9106ZM56.7608 67.9C57.36 68.465 58.0914 68.6543 58.7295 68.6543V64.6543C58.7897 64.6543 58.9069 64.6627 59.0556 64.7148C59.2106 64.7693 59.3679 64.8606 59.5048 64.9896L56.7608 67.9ZM58.7295 68.6543C59.0771 68.6543 59.4174 68.5994 59.7434 68.4942L58.5154 64.6874C58.579 64.6669 58.6527 64.6543 58.7295 64.6543V68.6543ZM59.7982 68.4757C60.146 68.3523 60.4648 68.1722 60.7479 67.9436L58.2345 64.8318C58.2976 64.7809 58.3752 64.7363 58.4606 64.706L59.7982 68.4757ZM61.4912 66.3877V65.3149H57.4912V66.3877H61.4912ZM60.5202 63.6C59.9885 63.2809 59.3983 63.1245 58.793 63.1245V67.1245C58.7515 67.1245 58.6956 67.1191 58.6317 67.1016C58.5675 67.0841 58.5098 67.0585 58.4622 67.0299L60.5202 63.6ZM58.793 63.1245C58.1877 63.1245 57.4031 63.2785 56.7596 63.8863L59.5061 66.7944C59.1672 67.1144 58.8227 67.1245 58.793 67.1245V63.1245ZM56.7608 63.8852C56.1688 64.4433 55.9106 65.1733 55.9106 65.8862H59.9106C59.9106 65.9962 59.8919 66.1555 59.8186 66.3355C59.7437 66.5196 59.6316 66.676 59.5048 66.7955L56.7608 63.8852ZM64.4995 63.5122L62.6632 62.7197L62.6597 62.7279L62.6562 62.7361L64.4995 63.5122ZM65.2422 62.4839L66.5648 63.9841L66.5703 63.9793L66.5758 63.9744L65.2422 62.4839ZM66.4102 61.8237L67.0426 63.7211L67.053 63.7176L66.4102 61.8237ZM69.1333 61.7476L68.55 63.6606L68.5608 63.6639L68.5715 63.667L69.1333 61.7476ZM70.0283 62.1538L68.906 63.8092L72.0283 65.9261V62.1538H70.0283ZM70.0283 57.52V55.52H68.0283V57.52H70.0283ZM73.4751 57.52H75.4751V55.52H73.4751V57.52ZM73.4751 68V70H75.4751V68H73.4751ZM70.3013 68L68.4024 68.6279L68.8561 70H70.3013V68ZM70.041 67.2129L71.9399 66.585L70.9417 63.566L68.6527 65.7732L70.041 67.2129ZM68.4224 68.0444L67.996 66.0904L67.9885 66.0921L68.4224 68.0444ZM65.2549 67.2954L63.935 68.798L63.9408 68.8031L63.9466 68.8081L65.2549 67.2954ZM64.5122 66.2734L62.6769 67.0681L62.6818 67.0796L62.6869 67.091L64.5122 66.2734ZM67.9019 65.6704L65.9673 66.1778L65.9712 66.1926L65.9753 66.2073L67.9019 65.6704ZM68.1938 66.3052L66.5889 67.4986L66.5964 67.5086L66.6039 67.5185L68.1938 66.3052ZM69.6411 66.6924L70.3742 68.5532L70.3884 68.5476L70.4026 68.5417L69.6411 66.6924ZM70.0283 66.4702L71.2562 68.0489L72.0283 67.4484V66.4702H70.0283ZM70.0283 62.9917H72.0283V62.0876L71.3496 61.4903L70.0283 62.9917ZM69.6665 62.7759L68.9445 64.641L68.9544 64.6448L68.9643 64.6485L69.6665 62.7759ZM68.689 62.8203L69.4768 64.6586L69.4871 64.6542L69.4973 64.6497L68.689 62.8203ZM68.2192 63.1821L66.6731 61.9135L66.6632 61.9255L66.6536 61.9376L68.2192 63.1821ZM67.9082 63.8169L65.99 63.2509L65.9869 63.2613L65.9839 63.2717L67.9082 63.8169ZM66.2456 64.8579C66.2456 64.5935 66.29 64.4136 66.3428 64.2883L62.6562 62.7361C62.3705 63.4148 62.2456 64.1321 62.2456 64.8579H66.2456ZM66.3358 64.3047C66.3949 64.1677 66.4693 64.0683 66.5648 63.9841L63.9196 60.9836C63.3718 61.4665 62.9511 62.0527 62.6632 62.7197L66.3358 64.3047ZM66.5758 63.9744C66.6715 63.8888 66.8144 63.7972 67.0426 63.7211L65.7777 59.9264C65.0918 60.155 64.4561 60.5035 63.9086 60.9934L66.5758 63.9744ZM67.053 63.7176C67.275 63.6423 67.5695 63.5889 67.959 63.5889V59.5889C67.2059 59.5889 66.4679 59.6921 65.7673 59.9299L67.053 63.7176ZM67.959 63.5889C68.2357 63.5889 68.4257 63.6227 68.55 63.6606L69.7166 59.8345C69.1469 59.6608 68.554 59.5889 67.959 59.5889V63.5889ZM68.5715 63.667C68.7574 63.7215 68.8585 63.777 68.906 63.8092L71.1506 60.4984C70.6988 60.192 70.2032 59.9768 69.6951 59.8281L68.5715 63.667ZM72.0283 62.1538V57.52H68.0283V62.1538H72.0283ZM70.0283 59.52H73.4751V55.52H70.0283V59.52ZM71.4751 57.52V68H75.4751V57.52H71.4751ZM73.4751 66H70.3013V70H73.4751V66ZM72.2002 67.3721L71.9399 66.585L68.1421 67.8407L68.4024 68.6279L72.2002 67.3721ZM68.6527 65.7732C68.6357 65.7897 68.5914 65.8285 68.5063 65.8852L70.7251 69.2134C70.9702 69.0501 71.2094 68.8646 71.4293 68.6526L68.6527 65.7732ZM68.5063 65.8852C68.4531 65.9207 68.3817 65.9606 68.2867 66.001L69.8529 69.6816C70.1557 69.5528 70.4483 69.398 70.7251 69.2134L68.5063 65.8852ZM68.2867 66.001C68.2139 66.032 68.1188 66.0636 67.996 66.0904L68.8487 69.9985C69.1914 69.9237 69.528 69.8199 69.8529 69.6816L68.2867 66.001ZM67.9885 66.0921C67.9139 66.1086 67.8189 66.1206 67.6987 66.1206V70.1206C68.0864 70.1206 68.4738 70.0818 68.8562 69.9968L67.9885 66.0921ZM67.6987 66.1206C67.4177 66.1206 67.1843 66.08 66.9855 66.0138L65.7206 69.8085C66.3597 70.0215 67.0234 70.1206 67.6987 70.1206V66.1206ZM66.9855 66.0138C66.7981 65.9513 66.6655 65.8711 66.5632 65.7827L63.9466 68.8081C64.4706 69.2613 65.0701 69.5917 65.7206 69.8085L66.9855 66.0138ZM66.5748 65.7928C66.4917 65.7198 66.4102 65.6183 66.3375 65.4559L62.6869 67.091C62.9781 67.7411 63.3917 68.3209 63.935 68.798L66.5748 65.7928ZM66.3475 65.4788C66.2972 65.3625 66.2456 65.1693 66.2456 64.8579H62.2456C62.2456 65.6129 62.3717 66.3634 62.6769 67.0681L66.3475 65.4788ZM65.8003 64.7373C65.8003 65.215 65.8436 65.7064 65.9673 66.1778L69.8364 65.163C69.8246 65.1181 69.8003 64.9874 69.8003 64.7373H65.8003ZM65.9753 66.2073C66.0942 66.6341 66.2826 67.0866 66.5889 67.4986L69.7988 65.1118C69.8304 65.1543 69.8439 65.1827 69.8458 65.1869C69.8476 65.1908 69.84 65.1751 69.8284 65.1335L65.9753 66.2073ZM66.6039 67.5185C66.9098 67.9193 67.312 68.2599 67.8111 68.4845L69.4526 64.8368C69.6131 64.9091 69.7233 65.0127 69.7838 65.0918L66.6039 67.5185ZM67.8111 68.4845C68.2619 68.6873 68.7313 68.7749 69.1904 68.7749V64.7749C69.2433 64.7749 69.3403 64.7863 69.4526 64.8368L67.8111 68.4845ZM69.1904 68.7749C69.5841 68.7749 69.9848 68.7066 70.3742 68.5532L68.9081 64.8316C69.0181 64.7882 69.1184 64.7749 69.1904 64.7749V68.7749ZM70.4026 68.5417C70.701 68.4189 70.9892 68.2566 71.2562 68.0489L68.8004 64.8915C68.839 64.8615 68.869 64.8474 68.8796 64.843L70.4026 68.5417ZM72.0283 66.4702V62.9917H68.0283V66.4702H72.0283ZM71.3496 61.4903C71.0569 61.2327 70.7252 61.0369 70.3688 60.9032L68.9643 64.6485C68.8786 64.6164 68.7882 64.5645 68.7071 64.4931L71.3496 61.4903ZM70.3885 60.9107C70.0519 60.7804 69.6785 60.6997 69.2793 60.6997V64.6997C69.134 64.6997 69.0188 64.6698 68.9445 64.641L70.3885 60.9107ZM69.2793 60.6997C68.8073 60.6997 68.3332 60.791 67.8806 60.9909L69.4973 64.6497C69.4087 64.6888 69.3281 64.6997 69.2793 64.6997V60.6997ZM67.9011 60.982C67.3989 61.1973 66.9904 61.5268 66.6731 61.9135L69.7654 64.4508C69.7189 64.5074 69.6235 64.5957 69.4768 64.6586L67.9011 60.982ZM66.6536 61.9376C66.3248 62.3513 66.1197 62.8114 65.99 63.2509L69.8264 64.3829C69.8371 64.3469 69.8431 64.3363 69.8391 64.3446C69.8348 64.3534 69.8188 64.384 69.7849 64.4266L66.6536 61.9376ZM65.9839 63.2717C65.8473 63.754 65.8003 64.2551 65.8003 64.7373H69.8003C69.8003 64.5001 69.8252 64.3876 69.8325 64.3621L65.9839 63.2717Z" fill="#E36396"/>
<path d="M2.66992 56.9395H8.04004C9.55176 56.9395 10.8613 57.083 11.9688 57.3701C13.0762 57.6514 13.9932 58.0674 14.7197 58.6182C15.4463 59.1689 15.9854 59.8457 16.3369 60.6484C16.6885 61.4512 16.8643 62.3711 16.8643 63.4082C16.8643 64.334 16.6885 65.1982 16.3369 66.001C15.9854 66.7979 15.4463 67.4951 14.7197 68.0928C13.9932 68.6846 13.0762 69.1504 11.9688 69.4902C10.8613 69.8301 9.55176 70 8.04004 70H2.66992V56.9395ZM7.75 68.084C8.33594 68.084 8.86328 67.9932 9.33203 67.8115C9.80078 67.6299 10.1963 67.3486 10.5186 66.9678C10.8467 66.5869 11.0957 66.1035 11.2656 65.5176C11.4414 64.9258 11.5293 64.2197 11.5293 63.3994C11.5293 62.585 11.4414 61.8906 11.2656 61.3164C11.0898 60.7422 10.8379 60.2734 10.5098 59.9102C10.1816 59.541 9.7832 59.2744 9.31445 59.1104C8.85156 58.9404 8.33301 58.8555 7.75879 58.8555L7.75 68.084ZM18.4287 65.5967C18.4287 65.0928 18.5078 64.6328 18.666 64.2168C18.8242 63.8008 19.041 63.4287 19.3164 63.1006C19.5977 62.7666 19.9287 62.4766 20.3096 62.2305C20.6904 61.9844 21.1035 61.7793 21.5488 61.6152C21.9941 61.4512 22.46 61.3281 22.9463 61.2461C23.4326 61.1641 23.9248 61.123 24.4229 61.123C25.0791 61.123 25.6738 61.1904 26.207 61.3252C26.7461 61.4541 27.2236 61.6328 27.6396 61.8613C28.0615 62.0898 28.4248 62.3564 28.7295 62.6611C29.04 62.9658 29.2949 63.291 29.4941 63.6367C29.6992 63.9766 29.8486 64.3281 29.9424 64.6914C30.042 65.0547 30.0918 65.4092 30.0918 65.7549L23.4473 66.5547C23.5762 67.2051 23.834 67.709 24.2207 68.0664C24.6074 68.4238 25.1494 68.6025 25.8467 68.6025C26.2275 68.6025 26.582 68.5557 26.9102 68.4619C27.2441 68.3682 27.5049 68.2539 27.6924 68.1191L28.3955 69.3496C28.1787 69.4609 27.9414 69.5664 27.6836 69.666C27.4316 69.7656 27.1504 69.8535 26.8398 69.9297C26.5352 70 26.1953 70.0557 25.8203 70.0967C25.4512 70.1436 25.0439 70.167 24.5986 70.167C23.5322 70.167 22.6123 70.0439 21.8389 69.7979C21.0654 69.5459 20.4238 69.2119 19.9141 68.7959C19.4102 68.374 19.0352 67.8877 18.7891 67.3369C18.5488 66.7861 18.4287 66.2061 18.4287 65.5967ZM25.8291 64.8584C25.8291 64.0967 25.7324 63.543 25.5391 63.1973C25.3516 62.8516 25.0703 62.6787 24.6953 62.6787C24.502 62.6787 24.3232 62.7256 24.1592 62.8193C23.9951 62.9131 23.8545 63.0596 23.7373 63.2588C23.6201 63.458 23.5264 63.7158 23.4561 64.0322C23.3857 64.3428 23.3477 64.7207 23.3418 65.166L25.8291 64.8584ZM30.54 61.29H35.5322L37.6152 66.9502L39.6279 61.29H41.5967L38.3535 70H36.5254V69.9912H34.0469L30.54 61.29Z" fill="#E36396"/>
<path d="M19.4805 25.1055L30.1641 28.6992L30.1641 34.6953L12.8984 27.6641V22.4688L30.1641 15.4375V21.4141L19.4805 25.1055ZM36.4922 39.4414H31.8242L41.5312 8.5625H46.2188L36.4922 39.4414ZM59.2461 25.0469L48.6211 21.4336V15.457L65.7891 22.4883V27.6836L48.6211 34.7148V28.7383L59.2461 25.0469Z" fill="white"/>
<path d="M19.4805 25.1055L17.521 19.4344L0.88772 25.1816L17.5675 30.7923L19.4805 25.1055ZM30.1641 28.6992H36.1641V24.3871L32.077 23.0123L30.1641 28.6992ZM30.1641 34.6953L27.9011 40.2522L36.1641 43.6172V34.6953H30.1641ZM12.8984 27.6641H6.89844V31.6991L10.6355 33.2209L12.8984 27.6641ZM12.8984 22.4688L10.6355 16.9119L6.89844 18.4337V22.4688H12.8984ZM30.1641 15.4375H36.1641V6.5156L27.9011 9.88062L30.1641 15.4375ZM30.1641 21.4141L32.1235 27.0851L36.1641 25.689V21.4141H30.1641ZM17.5675 30.7923L28.2511 34.3861L32.077 23.0123L21.3934 19.4186L17.5675 30.7923ZM24.1641 28.6992V34.6953H36.1641V28.6992H24.1641ZM32.427 29.1384L15.1614 22.1072L10.6355 33.2209L27.9011 40.2522L32.427 29.1384ZM18.8984 27.6641V22.4688H6.89844L6.89844 27.6641H18.8984ZM15.1614 28.0256L32.427 20.9944L27.9011 9.88062L10.6355 16.9119L15.1614 28.0256ZM24.1641 15.4375V21.4141H36.1641V15.4375L24.1641 15.4375ZM28.2046 15.743L17.521 19.4344L21.4399 30.7765L32.1235 27.0851L28.2046 15.743ZM36.4922 39.4414V45.4414H40.8929L42.215 41.244L36.4922 39.4414ZM31.8242 39.4414L26.1004 37.6421L23.6486 45.4414H31.8242V39.4414ZM41.5312 8.5625V2.5625L37.1279 2.5625L35.8074 6.76316L41.5312 8.5625ZM46.2188 8.5625L51.9416 10.3651L54.3993 2.5625L46.2188 2.5625V8.5625ZM36.4922 33.4414H31.8242V45.4414H36.4922V33.4414ZM37.5481 41.2407L47.2551 10.3618L35.8074 6.76316L26.1004 37.6421L37.5481 41.2407ZM41.5312 14.5625H46.2188V2.5625H41.5312V14.5625ZM40.4959 6.75987L30.7694 37.6388L42.215 41.244L51.9416 10.3651L40.4959 6.75987ZM59.2461 25.0469L61.2152 30.7146L77.7032 24.9862L61.1779 19.3664L59.2461 25.0469ZM48.6211 21.4336L42.6211 21.4336V25.7306L46.6893 27.1141L48.6211 21.4336ZM48.6211 15.457L50.8951 9.90466L42.6211 6.51598V15.457H48.6211ZM65.7891 22.4883H71.7891V18.4619L68.0631 16.9359L65.7891 22.4883ZM65.7891 27.6836L68.0631 33.236L71.7891 31.71V27.6836H65.7891ZM48.6211 34.7148H42.6211V43.6559L50.8951 40.2672L48.6211 34.7148ZM48.6211 28.7383L46.652 23.0706L42.6211 24.471V28.7383L48.6211 28.7383ZM61.1779 19.3664L50.5529 15.7531L46.6893 27.1141L57.3143 30.7274L61.1779 19.3664ZM54.6211 21.4336V15.457H42.6211V21.4336L54.6211 21.4336ZM46.3471 21.0094L63.5151 28.0407L68.0631 16.9359L50.8951 9.90466L46.3471 21.0094ZM59.7891 22.4883V27.6836H71.7891V22.4883H59.7891ZM63.5151 22.1312L46.3471 29.1625L50.8951 40.2672L68.0631 33.236L63.5151 22.1312ZM54.6211 34.7148V28.7383L42.6211 28.7383V34.7148H54.6211ZM50.5902 34.406L61.2152 30.7146L57.277 19.3792L46.652 23.0706L50.5902 34.406Z" fill="#557DAC"/>
</svg>
