<svg width="500" height="500" viewBox="0 0 500 500" fill="none" xmlns="http://www.w3.org/2000/svg">
<path d="M418.49 123.269C404.22 100.049 380.43 83.9995 353.41 80.3995C342.895 78.9601 332.211 79.3288 321.82 81.4895C290.87 88.0395 263.93 111.149 252.82 140.749C246.26 158.159 244.42 178.199 231.96 192.019C215.75 210.019 188.22 210.569 164.01 209.829C139.8 209.089 112.26 209.719 96.13 227.769C86 239.079 82.76 255.159 83.57 270.299C85.73 310.399 114 346.249 150 364.059C186 381.869 228.35 383.479 267.72 375.639C322.89 364.639 375.35 334.499 406.88 287.929C436.88 243.549 445.59 183.849 424.52 134.839C422.792 130.842 420.777 126.975 418.49 123.269Z" fill="#557DAC" fill-opacity="0.35"/>
<path d="M307.73 291.09C309.87 274.98 298.54 261.68 284.38 253.69C270.22 245.7 253.79 243 238.15 238.58C223.4 234.39 208.73 228.27 197.81 217.51C186.89 206.75 180.33 190.58 184.25 175.76C185.25 172.04 187 168.3 190.2 166.15C193.4 164 198.27 164.06 200.66 167.08C205.74 173.52 195.84 185.08 202.04 190.42C203.46 191.66 205.42 192.11 206.89 193.28C210.8 196.41 209.54 202.48 210.09 207.46C211.18 217.31 220.42 224.15 229.49 228.14C241.64 233.48 254.8 235.99 267.68 239.14C280.56 242.29 293.57 246.3 304.3 254.14C315.03 261.98 324.36 274.14 324.3 287.43C324.3 291.14 323.81 295.7 321.48 298.58C319.15 301.46 316.19 302.07 312.83 300.49C309.47 298.91 307.13 296.49 307.75 291.11" fill="#E36396"/>
<g opacity="0.8">
<path opacity="0.8" d="M307.73 291.09C309.87 274.98 298.54 261.68 284.38 253.69C270.22 245.7 253.79 243 238.15 238.58C223.4 234.39 208.73 228.27 197.81 217.51C186.89 206.75 180.33 190.58 184.25 175.76C185.25 172.04 187 168.3 190.2 166.15C193.4 164 198.27 164.06 200.66 167.08C205.74 173.52 195.84 185.08 202.04 190.42C203.46 191.66 205.42 192.11 206.89 193.28C210.8 196.41 209.54 202.48 210.09 207.46C211.18 217.31 220.42 224.15 229.49 228.14C241.64 233.48 254.8 235.99 267.68 239.14C280.56 242.29 293.57 246.3 304.3 254.14C315.03 261.98 324.36 274.14 324.3 287.43C324.3 291.14 323.81 295.7 321.48 298.58C319.15 301.46 316.19 302.07 312.83 300.49C309.47 298.91 307.13 296.49 307.75 291.11" fill="white"/>
</g>
<path d="M239.23 162.999C238.72 156.999 243.17 151.829 248.23 149.049C253.29 146.269 259.09 145.129 264.3 142.659C277.25 136.519 285.48 122.069 286.09 107.259C286.7 92.4495 280.27 77.6295 270.23 66.7495C266.14 62.3295 261.12 57.6895 261.06 51.6595C261 45.3595 267.06 40.3995 273.2 40.4795C279.34 40.5595 284.92 44.6495 288.57 49.7795C292.22 54.9095 294.23 60.9995 296.2 66.9995C294.8 64.4795 297.67 61.3695 300.45 61.6395C303.23 61.9095 305.45 64.2195 307.12 66.5195C314.518 76.5642 318.066 88.9302 317.12 101.369C316.118 113.577 310.59 124.969 301.62 133.309C291.75 142.309 278.7 146.519 266.04 150.519L239.63 158.849" fill="#E36396"/>
<g opacity="0.8">
<path opacity="0.8" d="M239.23 162.999C238.72 156.999 243.17 151.829 248.23 149.049C253.29 146.269 259.09 145.129 264.3 142.659C277.25 136.519 285.48 122.069 286.09 107.259C286.7 92.4495 280.27 77.6295 270.23 66.7495C266.14 62.3295 261.12 57.6895 261.06 51.6595C261 45.3595 267.06 40.3995 273.2 40.4795C279.34 40.5595 284.92 44.6495 288.57 49.7795C292.22 54.9095 294.23 60.9995 296.2 66.9995C294.8 64.4795 297.67 61.3695 300.45 61.6395C303.23 61.9095 305.45 64.2195 307.12 66.5195C314.518 76.5642 318.066 88.9302 317.12 101.369C316.118 113.577 310.59 124.969 301.62 133.309C291.75 142.309 278.7 146.519 266.04 150.519L239.63 158.849" fill="white"/>
</g>
<path d="M231.88 37.5205C230.541 38.073 229.467 39.1213 228.882 40.4467C228.297 41.7721 228.246 43.2722 228.741 44.6339C229.235 45.9957 230.237 47.1138 231.536 47.7551C232.835 48.3964 234.331 48.5113 235.713 48.0757C237.095 47.6402 238.255 46.6879 238.951 45.4176C239.648 44.1473 239.827 42.6571 239.451 41.2579C239.075 39.8588 238.174 38.6588 236.934 37.9084C235.695 37.158 234.214 36.9151 232.8 37.2305" fill="#E36396"/>
<g opacity="0.8">
<path opacity="0.8" d="M231.88 37.5205C230.541 38.073 229.467 39.1213 228.882 40.4467C228.297 41.7721 228.246 43.2722 228.741 44.6339C229.235 45.9957 230.237 47.1138 231.536 47.7551C232.835 48.3964 234.331 48.5113 235.713 48.0757C237.095 47.6402 238.255 46.6879 238.951 45.4176C239.648 44.1473 239.827 42.6571 239.451 41.2579C239.075 39.8588 238.174 38.6588 236.934 37.9084C235.695 37.158 234.214 36.9151 232.8 37.2305" fill="white"/>
</g>
<path d="M264.45 422.84C261.21 416.13 264.04 407.76 269.2 402.38C274.36 397 281.4 393.93 288.2 390.93C303.26 384.29 319.2 376.39 326.85 361.83C329.43 356.92 330.9 351.52 332.35 346.16C335.16 335.8 337.8 324.03 332.15 314.9C330.52 312.27 328.08 309.9 325.04 309.4C321.57 308.78 318.04 310.69 315.88 313.48C313.878 316.396 312.674 319.785 312.39 323.31C311.55 329.94 312.25 336.69 311.55 343.31C310.85 349.93 308.44 357 303 360.78C296.33 365.43 286.82 364.39 280.35 369.3C275.12 373.3 273.13 380.14 269.05 385.3C265.61 389.61 260.8 392.55 256.4 395.87C252 399.19 247.74 403.23 246.24 408.54C245.453 411.316 245.483 414.26 246.327 417.019C247.171 419.778 248.792 422.235 250.997 424.095C253.202 425.956 255.896 427.142 258.758 427.51C261.619 427.878 264.526 427.413 267.13 426.17" fill="#E36396"/>
<g opacity="0.8">
<path opacity="0.8" d="M264.45 422.84C261.21 416.13 264.04 407.76 269.2 402.38C274.36 397 281.4 393.93 288.2 390.93C303.26 384.29 319.2 376.39 326.85 361.83C329.43 356.92 330.9 351.52 332.35 346.16C335.16 335.8 337.8 324.03 332.15 314.9C330.52 312.27 328.08 309.9 325.04 309.4C321.57 308.78 318.04 310.69 315.88 313.48C313.878 316.396 312.674 319.785 312.39 323.31C311.55 329.94 312.25 336.69 311.55 343.31C310.85 349.93 308.44 357 303 360.78C296.33 365.43 286.82 364.39 280.35 369.3C275.12 373.3 273.13 380.14 269.05 385.3C265.61 389.61 260.8 392.55 256.4 395.87C252 399.19 247.74 403.23 246.24 408.54C245.453 411.316 245.483 414.26 246.327 417.019C247.171 419.778 248.792 422.235 250.997 424.095C253.202 425.956 255.896 427.142 258.758 427.51C261.619 427.878 264.526 427.413 267.13 426.17" fill="white"/>
</g>
<path d="M164.33 83.8596C161.667 81.8827 159.515 79.2992 158.051 76.3236C156.587 73.348 155.854 70.066 155.912 66.7503C155.971 63.4346 156.82 60.1807 158.388 57.2587C159.957 54.3367 162.199 51.831 164.93 49.9496C168.01 47.8396 171.65 46.5396 174.39 43.9496C176.82 41.6896 178.39 38.5596 181.12 36.6596C182.824 35.4514 184.869 34.8191 186.957 34.855C189.046 34.8908 191.068 35.593 192.729 36.859C194.39 38.125 195.604 39.8887 196.192 41.8927C196.781 43.8968 196.713 46.0364 196 47.9996C194.75 51.5096 191.6 54.0796 190.28 57.5596C188.86 61.3196 189.78 65.5596 189.28 69.4996C188.953 71.9526 188.078 74.3005 186.719 76.3692C185.361 78.4379 183.555 80.1744 181.434 81.4499C179.313 82.7254 176.933 83.5072 174.469 83.7374C172.005 83.9676 169.52 83.6402 167.2 82.7796" fill="#E36396"/>
<g opacity="0.8">
<path opacity="0.8" d="M164.33 83.8596C161.667 81.8827 159.515 79.2992 158.051 76.3236C156.587 73.348 155.854 70.066 155.912 66.7503C155.971 63.4346 156.82 60.1807 158.388 57.2587C159.957 54.3367 162.199 51.831 164.93 49.9496C168.01 47.8396 171.65 46.5396 174.39 43.9496C176.82 41.6896 178.39 38.5596 181.12 36.6596C182.824 35.4514 184.869 34.8191 186.957 34.855C189.046 34.8908 191.068 35.593 192.729 36.859C194.39 38.125 195.604 39.8887 196.192 41.8927C196.781 43.8968 196.713 46.0364 196 47.9996C194.75 51.5096 191.6 54.0796 190.28 57.5596C188.86 61.3196 189.78 65.5596 189.28 69.4996C188.953 71.9526 188.078 74.3005 186.719 76.3692C185.361 78.4379 183.555 80.1744 181.434 81.4499C179.313 82.7254 176.933 83.5072 174.469 83.7374C172.005 83.9676 169.52 83.6402 167.2 82.7796" fill="white"/>
</g>
<path d="M164.71 62.4199H177V87.7499C177 88.4604 176.86 89.1639 176.588 89.8202C176.316 90.4766 175.918 91.073 175.415 91.5754C174.913 92.0777 174.317 92.4762 173.66 92.7481C173.004 93.02 172.3 93.1599 171.59 93.1599H170.13C168.695 93.1599 167.319 92.5899 166.305 91.5754C165.29 90.5608 164.72 89.1847 164.72 87.7499V62.4199H164.71Z" fill="#E36396"/>
<path d="M164.71 62.4204L170.85 51.1504L177 62.4204H164.71Z" fill="#FFBE9D"/>
<path d="M168.42 55.6104C168.42 55.6104 170.29 58.4204 173.29 55.6104L170.86 51.1504L168.42 55.6104Z" fill="#E36396"/>
<path d="M177.17 86.52C175.097 86.7705 173.007 86.8541 170.92 86.77C168.837 86.8543 166.75 86.7707 164.68 86.52C166.75 86.2694 168.837 86.1858 170.92 86.27C173.007 86.1859 175.097 86.2695 177.17 86.52Z" fill="#263238"/>
<path d="M177 84.6302C174.971 84.8807 172.924 84.9643 170.88 84.8802C168.837 84.9643 166.79 84.8807 164.76 84.6302C166.791 84.3924 168.837 84.3121 170.88 84.3902C172.923 84.3121 174.97 84.3924 177 84.6302Z" fill="#263238"/>
<path d="M168.32 62.5996C168.45 62.5996 168.57 67.4996 168.57 73.5496C168.57 79.5996 168.45 84.5496 168.32 84.5496C168.19 84.5496 168.07 79.6396 168.07 73.5496C168.07 67.4596 168.18 62.5996 168.32 62.5996Z" fill="#FAFAFA"/>
<path d="M173.29 62.5996C173.43 62.5996 173.54 67.4996 173.54 73.5496C173.54 79.5996 173.43 84.5496 173.29 84.5496C173.15 84.5496 173.04 79.6396 173.04 73.5496C173.04 67.4596 173.15 62.5996 173.29 62.5996Z" fill="#FAFAFA"/>
<path d="M271.49 408.721L327.32 411.111L328.67 414.361L292.07 473.761L226.01 471.831L271.49 408.721Z" fill="#263238"/>
<path d="M223.51 466.041L289.96 469.841L324.68 415.971L300.3 417.951L238.61 439.671L223.51 466.041Z" fill="#E0E0E0"/>
<path d="M214.17 462.049L275.17 463.049C272.64 455.239 278.61 444.249 286.82 440.549C292.26 438.099 302.49 434.919 307.77 432.209C317.77 427.059 326.87 417.319 326.08 408.949L301 408.119L269 406.879C266.32 414.819 260.6 420.009 251.9 423.139C244.12 425.939 235.26 425.929 227.66 429.139C215.44 434.259 209.57 450.849 214.12 462.079" fill="#EBEBEB"/>
<path d="M214.17 462.05C214.17 462.05 214.11 461.92 214.02 461.65L213.6 460.48C213.378 459.826 213.204 459.158 213.08 458.48C212.876 457.564 212.735 456.635 212.66 455.7C212.465 453.103 212.627 450.492 213.14 447.94C213.85 444.502 215.178 441.222 217.06 438.26C217.59 437.403 218.175 436.581 218.81 435.8C219.14 435.41 219.46 434.98 219.81 434.6L220.94 433.45C221.318 433.055 221.726 432.691 222.16 432.36C222.59 432.01 223.01 431.64 223.47 431.31C224.422 430.639 225.425 430.044 226.47 429.53C230.7 427.4 235.75 426.53 241.01 425.53C243.65 425.05 246.37 424.53 249.09 423.8C251.889 423.032 254.59 421.945 257.14 420.56C258.457 419.847 259.711 419.024 260.89 418.1C262.104 417.166 263.22 416.11 264.22 414.95C266.291 412.556 267.868 409.776 268.86 406.77L268.92 406.6H269.09L295.74 407.6C304.99 407.96 314.56 408.21 324.36 408.54L326.14 408.6H326.36V408.82C326.494 410.735 326.221 412.657 325.56 414.46C325.244 415.35 324.87 416.219 324.44 417.06C323.998 417.886 323.511 418.687 322.98 419.46C320.871 422.487 318.323 425.183 315.42 427.46C312.613 429.695 309.547 431.585 306.29 433.09C303.07 434.54 299.81 435.72 296.62 436.9C293.43 438.08 290.27 439.2 287.28 440.5C285.808 441.152 284.426 441.992 283.17 443C282.52 443.46 281.98 444.05 281.39 444.56C280.8 445.07 280.29 445.69 279.82 446.32C277.872 448.671 276.42 451.392 275.55 454.32C274.668 457.091 274.615 460.059 275.4 462.86L275.49 463.13H275.21L230.82 462.35L218.51 462.1L215.29 462.01H214.18C214.18 462.01 214.56 462.01 215.29 462.01H218.52L230.83 462.15L275.21 462.77L275.02 463.03C274.198 460.154 274.244 457.1 275.15 454.25C276.02 451.256 277.494 448.472 279.48 446.07C279.95 445.43 280.54 444.88 281.07 444.28C281.6 443.68 282.23 443.15 282.89 442.67C284.17 441.636 285.583 440.779 287.09 440.12C290.09 438.8 293.27 437.67 296.46 436.49C299.65 435.31 302.9 434.12 306.09 432.68C309.304 431.19 312.326 429.316 315.09 427.1C317.955 424.859 320.469 422.203 322.55 419.22C323.072 418.471 323.556 417.697 324 416.9C324.418 416.081 324.782 415.236 325.09 414.37C325.727 412.634 325.993 410.784 325.87 408.94L326.11 409.16L324.32 409.11C314.52 408.78 304.95 408.52 295.71 408.11L269.05 407.11L269.28 406.95C268.259 410.009 266.649 412.839 264.54 415.28C263.519 416.46 262.38 417.532 261.14 418.48C259.942 419.42 258.664 420.253 257.32 420.97C254.743 422.371 252.011 423.465 249.18 424.23C246.43 424.98 243.7 425.48 241.06 425.95C235.8 426.89 230.77 427.77 226.6 429.85C225.579 430.352 224.6 430.934 223.67 431.59C223.21 431.91 222.8 432.28 222.37 432.59C221.939 432.917 221.534 433.279 221.16 433.67L220 434.82C219.64 435.2 219.33 435.62 219 436.01C218.363 436.776 217.778 437.584 217.25 438.43C215.368 441.357 214.036 444.604 213.32 448.01C212.783 450.539 212.598 453.13 212.77 455.71C212.829 456.641 212.956 457.567 213.15 458.48C213.261 459.157 213.422 459.825 213.63 460.48C213.8 461 213.92 461.39 214.01 461.67C214.1 461.95 214.17 462.05 214.17 462.05Z" fill="#263238"/>
<path d="M286.19 407.87C286.19 407.87 286.27 407.48 286.33 406.78C286.404 405.795 286.239 404.807 285.85 403.9C285.306 402.547 284.28 401.442 282.97 400.8C282.167 400.426 281.298 400.218 280.413 400.187C279.528 400.156 278.646 400.304 277.819 400.621C276.992 400.938 276.238 401.419 275.601 402.033C274.964 402.648 274.457 403.385 274.11 404.2C273.497 405.527 273.292 407.006 273.52 408.45C273.665 409.421 274.005 410.353 274.52 411.19C274.9 411.79 275.18 412.07 275.15 412.1C274.84 411.887 274.575 411.615 274.37 411.3C273.751 410.477 273.33 409.522 273.14 408.51C272.843 406.993 273.021 405.422 273.65 404.01C274.016 403.134 274.555 402.341 275.237 401.68C275.918 401.02 276.727 400.504 277.613 400.166C278.5 399.827 279.446 399.672 280.395 399.711C281.343 399.749 282.274 399.98 283.13 400.39C284.522 401.096 285.594 402.304 286.13 403.77C286.504 404.723 286.621 405.757 286.47 406.77C286.43 407.046 286.363 407.317 286.27 407.58C286.25 407.79 286.21 407.87 286.19 407.87Z" fill="#263238"/>
<path d="M295.76 407.87C295.71 407.87 295.84 407.48 295.9 406.78C295.968 405.795 295.804 404.809 295.42 403.9C294.87 402.546 293.841 401.443 292.53 400.8C291.727 400.427 290.857 400.22 289.973 400.19C289.088 400.16 288.207 400.308 287.38 400.625C286.554 400.942 285.8 401.422 285.162 402.036C284.525 402.65 284.017 403.386 283.67 404.2C283.06 405.528 282.858 407.007 283.09 408.45C283.23 409.422 283.571 410.355 284.09 411.19C284.47 411.79 284.75 412.07 284.72 412.1C284.403 411.892 284.133 411.62 283.93 411.3C283.314 410.475 282.894 409.521 282.7 408.51C282.412 406.992 282.593 405.422 283.22 404.01C283.585 403.135 284.125 402.344 284.805 401.684C285.486 401.024 286.293 400.509 287.179 400.17C288.064 399.832 289.01 399.677 289.957 399.715C290.904 399.752 291.834 399.982 292.69 400.39C294.082 401.096 295.154 402.304 295.69 403.77C296.06 404.724 296.181 405.756 296.04 406.77C296.002 407.047 295.931 407.319 295.83 407.58C295.827 407.68 295.803 407.779 295.76 407.87Z" fill="#263238"/>
<path d="M303 408.369C303 408.369 303.06 407.969 303.08 407.269C303.095 406.282 302.876 405.305 302.44 404.419C301.814 403.102 300.725 402.062 299.38 401.499C298.559 401.174 297.682 401.016 296.8 401.033C295.917 401.05 295.047 401.243 294.24 401.599C292.615 402.344 291.352 403.703 290.73 405.379C290.195 406.74 290.073 408.229 290.38 409.659C290.591 410.626 290.999 411.538 291.58 412.339C291.99 412.909 292.29 413.179 292.26 413.209C291.934 413.02 291.651 412.765 291.43 412.459C290.765 411.67 290.29 410.74 290.04 409.739C289.665 408.241 289.755 406.664 290.3 405.219C290.615 404.324 291.109 403.502 291.752 402.804C292.395 402.106 293.173 401.545 294.039 401.157C294.906 400.769 295.842 400.561 296.791 400.546C297.74 400.531 298.682 400.709 299.56 401.069C300.99 401.693 302.13 402.837 302.75 404.269C303.185 405.206 303.364 406.241 303.27 407.269C303.249 407.548 303.195 407.823 303.11 408.089C303.08 408.279 303 408.369 303 408.369Z" fill="#263238"/>
<path d="M310.81 408.81C310.81 408.81 310.81 408.41 310.81 407.71C310.777 406.723 310.506 405.759 310.02 404.9C309.328 403.614 308.185 402.631 306.81 402.14C305.972 401.857 305.086 401.745 304.204 401.811C303.322 401.877 302.462 402.119 301.676 402.524C300.889 402.929 300.192 403.488 299.626 404.167C299.06 404.847 298.636 405.633 298.38 406.48C297.915 407.866 297.873 409.36 298.26 410.77C298.523 411.725 298.979 412.617 299.6 413.39C300.04 413.93 300.35 414.18 300.32 414.22C299.985 414.044 299.689 413.803 299.45 413.51C298.747 412.757 298.224 411.854 297.92 410.87C297.459 409.395 297.459 407.814 297.92 406.34C298.19 405.431 298.64 404.585 299.243 403.854C299.846 403.122 300.59 402.519 301.43 402.08C302.277 401.646 303.203 401.39 304.152 401.326C305.101 401.263 306.053 401.393 306.95 401.71C308.407 402.253 309.606 403.324 310.31 404.71C310.795 405.633 311.026 406.668 310.98 407.71C310.971 407.986 310.934 408.261 310.87 408.53C310.86 408.72 310.83 408.81 310.81 408.81Z" fill="#263238"/>
<path d="M318.61 408.629C318.61 408.629 318.61 408.229 318.61 407.529C318.549 406.543 318.25 405.586 317.74 404.739C317.012 403.476 315.844 402.526 314.46 402.069C313.614 401.808 312.723 401.719 311.842 401.809C310.961 401.899 310.107 402.166 309.331 402.594C308.556 403.021 307.874 403.601 307.328 404.297C306.781 404.994 306.38 405.794 306.15 406.649C305.79 407.821 305.731 409.064 305.977 410.264C306.223 411.465 306.768 412.584 307.56 413.519C308.02 414.049 308.34 414.289 308.31 414.319C307.967 414.164 307.663 413.936 307.42 413.649C306.699 412.913 306.153 412.024 305.82 411.049C305.321 409.586 305.283 408.005 305.71 406.519C305.955 405.603 306.382 404.746 306.964 403.997C307.546 403.248 308.272 402.623 309.1 402.159C309.933 401.704 310.851 401.423 311.796 401.334C312.742 401.244 313.696 401.348 314.6 401.639C316.075 402.146 317.306 403.188 318.05 404.559C318.561 405.475 318.819 406.511 318.8 407.559C318.799 407.838 318.769 408.117 318.71 408.389C318.66 408.529 318.63 408.629 318.61 408.629Z" fill="#263238"/>
<path d="M325.19 409.5C325.19 409.5 325.19 409.1 325.19 408.4C325.168 407.412 324.907 406.445 324.43 405.58C323.751 404.292 322.623 403.299 321.26 402.79C320.425 402.496 319.54 402.372 318.657 402.427C317.774 402.482 316.911 402.714 316.12 403.11C315.329 403.506 314.625 404.057 314.051 404.73C313.477 405.404 313.045 406.186 312.78 407.03C312.377 408.186 312.269 409.425 312.466 410.633C312.664 411.842 313.16 412.982 313.91 413.95C314.35 414.5 314.65 414.75 314.63 414.79C314.296 414.612 314.003 414.367 313.77 414.07C313.071 413.311 312.557 412.401 312.27 411.41C311.829 409.928 311.853 408.347 312.34 406.88C312.62 405.974 313.08 405.134 313.691 404.409C314.303 403.684 315.054 403.089 315.9 402.66C316.751 402.238 317.68 401.994 318.629 401.942C319.578 401.89 320.528 402.033 321.42 402.36C322.875 402.92 324.063 404.015 324.74 405.42C325.215 406.346 325.436 407.381 325.38 408.42C325.368 408.697 325.328 408.971 325.26 409.24C325.24 409.41 325.21 409.51 325.19 409.5Z" fill="#263238"/>
<path d="M354 204.65C351.238 204.567 348.473 204.694 345.73 205.03C337.407 206.101 329.762 210.178 324.237 216.494C318.711 222.81 315.686 230.928 315.73 239.32C315.7 244.841 316.417 250.34 317.86 255.67C322.67 272.73 324.15 287.76 323.6 295.09L339.7 303.74C339.7 303.74 347.15 293.03 354.35 288.41C361.55 283.79 385.51 271.41 395 258.76C401.11 250.58 402.29 233.76 387.71 219.1C378.742 210.138 366.674 204.965 354 204.65Z" fill="#557DAC"/>
<path d="M315.9 313.709L330.44 321.569L320.98 333.589L311.28 329.189L315.9 313.709Z" fill="#455A64"/>
<path d="M316.61 314.2C316.48 314.15 317.92 309.83 319.83 304.56C321.74 299.29 323.39 295.04 323.52 295.09C323.65 295.14 322.21 299.45 320.3 304.73C318.39 310.01 316.74 314.24 316.61 314.2Z" fill="#263238"/>
<path d="M329.53 321C329.41 320.93 331.69 316.85 334.61 311.89C337.53 306.93 340 303 340.13 303C340.26 303 337.97 307.15 335.04 312.11C332.11 317.07 329.64 321.05 329.53 321Z" fill="#263238"/>
<g opacity="0.4">
<path opacity="0.4" d="M358.8 205.109C358.15 205.109 350.15 214.509 346.61 220.849C334.7 242.179 334.16 262.929 330.86 287.129C330.39 290.589 328.67 298.039 328.7 297.869C330.46 299.249 336.38 301.999 336.38 301.999C336.38 301.999 341.97 295.259 344.19 291.869C353.07 278.299 362.72 267.709 370.33 253.379C377.94 239.049 385.26 226.379 378.22 211.719C378.22 211.719 366 204.699 358.8 205.109Z" fill="black"/>
</g>
<path d="M395 260.899C394.915 260.752 394.845 260.598 394.79 260.439C394.66 260.139 394.5 259.669 394.23 259.089C393.476 257.41 392.533 255.823 391.42 254.359C389.71 252.098 387.623 250.149 385.25 248.599C382.208 246.583 378.741 245.299 375.12 244.849H375L374.94 244.769C372.996 242.099 370.825 239.603 368.45 237.309C365.85 234.8 362.853 232.739 359.58 231.209C356.291 229.721 352.695 229.035 349.09 229.209C345.804 229.337 342.624 230.399 339.92 232.269L339.77 232.369L339.64 232.249C336.891 229.837 333.472 228.32 329.84 227.899C327.018 227.578 324.161 227.941 321.51 228.959C319.793 229.616 318.182 230.522 316.73 231.649C316.23 232.049 315.85 232.369 315.61 232.589C315.491 232.708 315.36 232.815 315.22 232.909C315.326 232.779 315.439 232.655 315.56 232.539C315.79 232.299 316.15 231.959 316.64 231.539C318.073 230.348 319.686 229.392 321.42 228.709C324.105 227.632 327.012 227.227 329.89 227.529C333.61 227.93 337.118 229.462 339.94 231.919H339.66C342.43 229.986 345.695 228.886 349.07 228.749C352.748 228.56 356.418 229.246 359.78 230.749C363.104 232.304 366.146 234.403 368.78 236.959C371.174 239.276 373.356 241.802 375.3 244.509L375.15 244.419C378.834 244.886 382.356 246.216 385.43 248.299C387.821 249.893 389.916 251.893 391.62 254.209C392.721 255.705 393.634 257.33 394.34 259.049C394.59 259.639 394.73 260.119 394.84 260.429C394.903 260.582 394.957 260.739 395 260.899Z" fill="#263238"/>
<path d="M365.06 282.15C364.813 280.912 364.342 279.729 363.67 278.66C362.883 277.436 361.826 276.41 360.58 275.66C358.986 274.674 357.116 274.231 355.25 274.4H355.05V274.2C354.659 271.806 353.663 269.552 352.156 267.651C350.649 265.75 348.682 264.266 346.44 263.34C344.453 262.563 342.318 262.238 340.19 262.39C338.235 262.532 336.331 263.08 334.6 264L334.45 264.08L334.33 263.95C332.833 262.381 330.875 261.33 328.74 260.95C327.082 260.628 325.373 260.683 323.74 261.11C322.29 261.514 320.932 262.193 319.74 263.11C319.74 263.11 319.8 263.02 319.95 262.89C320.1 262.76 320.32 262.55 320.63 262.32C321.542 261.674 322.556 261.184 323.63 260.87C325.303 260.387 327.066 260.298 328.78 260.61C331.013 260.978 333.066 262.063 334.63 263.7L334.36 263.65C336.138 262.705 338.092 262.14 340.1 261.99C342.301 261.835 344.508 262.177 346.56 262.99C349.027 263.987 351.165 265.657 352.73 267.81C354.137 269.701 355.057 271.909 355.41 274.24L355.18 274.06C357.132 273.907 359.08 274.395 360.73 275.45C361.998 276.237 363.066 277.309 363.85 278.58C364.351 279.393 364.709 280.286 364.91 281.22C364.96 281.464 364.997 281.711 365.02 281.96C365.038 282.022 365.052 282.085 365.06 282.15Z" fill="#263238"/>
<path d="M327.63 325.359C327.63 325.359 327.47 325.159 327.1 324.999C326.542 324.83 325.944 324.851 325.4 325.059C324.981 325.19 324.548 325.268 324.11 325.289C323.84 325.287 323.573 325.229 323.325 325.121C323.078 325.013 322.855 324.856 322.67 324.659C321.9 323.849 321.61 322.659 320.88 321.889C320.713 321.699 320.507 321.55 320.275 321.451C320.043 321.352 319.792 321.307 319.54 321.319C319.025 321.375 318.516 321.479 318.02 321.629C317.526 321.77 317.006 321.797 316.5 321.709C315.968 321.577 315.484 321.298 315.103 320.904C314.723 320.509 314.462 320.015 314.35 319.479C314.282 319.257 314.282 319.02 314.35 318.799C314.35 318.799 314.35 319.039 314.52 319.439C314.708 319.991 315.056 320.475 315.52 320.829C315.824 321.072 316.186 321.234 316.57 321.299C317.016 321.359 317.471 321.318 317.9 321.179C318.423 321.01 318.963 320.897 319.51 320.839C319.831 320.82 320.153 320.874 320.451 320.997C320.749 321.12 321.015 321.309 321.23 321.549C322.08 322.549 322.34 323.649 322.99 324.339C323.277 324.66 323.68 324.854 324.11 324.879C324.512 324.874 324.912 324.817 325.3 324.709C325.917 324.517 326.583 324.56 327.17 324.829C327.59 325.069 327.65 325.359 327.63 325.359Z" fill="#263238"/>
<path d="M329.3 322.999C326.864 321.985 324.496 320.816 322.21 319.499C319.842 318.326 317.548 317.011 315.34 315.559C317.776 316.578 320.148 317.747 322.44 319.059C324.804 320.232 327.095 321.548 329.3 322.999Z" fill="#263238"/>
<path d="M326.41 326.69C326.41 326.69 326.21 326.79 325.86 326.95C325.68 327.03 325.48 327.15 325.2 327.27C324.879 327.382 324.538 327.426 324.2 327.4C323.321 327.351 322.481 327.026 321.8 326.47C321.401 326.131 321.089 325.703 320.89 325.22C320.726 324.747 320.487 324.304 320.18 323.91C319.819 323.606 319.398 323.382 318.945 323.251C318.492 323.12 318.017 323.085 317.55 323.15C316.699 323.249 315.836 323.168 315.02 322.91C314.46 322.696 314.002 322.278 313.74 321.74C313.58 321.35 313.64 321.1 313.66 321.11C313.68 321.12 313.72 321.33 313.92 321.65C314.209 322.093 314.644 322.422 315.15 322.58C315.928 322.775 316.737 322.812 317.53 322.69C318.063 322.611 318.608 322.649 319.126 322.801C319.644 322.953 320.123 323.215 320.53 323.57C320.868 324.007 321.131 324.497 321.31 325.02C321.478 325.443 321.742 325.823 322.08 326.13C322.685 326.637 323.425 326.957 324.21 327.05C324.745 327.098 325.284 327.001 325.77 326.77C326.18 326.66 326.41 326.66 326.41 326.69Z" fill="#263238"/>
<path d="M216.62 233.3L241.77 229.57L229.77 212.57L223.33 212.95C221.202 213.073 219.15 213.785 217.403 215.007C215.657 216.229 214.284 217.913 213.44 219.87C212.527 221.993 212.272 224.341 212.71 226.61L216.62 233.3Z" fill="#E36396"/>
<path opacity="0.4" d="M216.62 233.3L241.77 229.57L229.77 212.57L223.33 212.95C221.202 213.073 219.15 213.785 217.403 215.007C215.657 216.229 214.284 217.913 213.44 219.87C212.527 221.993 212.272 224.341 212.71 226.61L216.62 233.3Z" fill="black"/>
<path d="M324.64 261.161C324.9 261.881 325.18 262.731 325.47 263.751C325.709 264.63 325.801 265.543 325.74 266.451C325.7 267.579 325.509 268.695 325.17 269.771C324.76 270.771 325.72 271.691 326.53 271.211C327.34 270.731 328.53 268.131 328.53 264.791C328.53 261.451 331.87 265.451 333.14 266.891C334.41 268.331 338.55 272.601 339.3 272.561C340.4 272.501 340.54 271.311 339.24 269.901C337.94 268.491 334.33 264.001 335.12 263.361C335.91 262.721 342.27 270.151 342.27 270.151C342.27 270.151 343.37 271.961 344.27 271.261C345.97 269.991 338.62 262.601 337.9 261.921C337.41 261.441 338.24 260.721 338.75 261.261C339.26 261.801 344.93 268.811 346.67 267.531C348 266.531 340.67 261.401 340.31 259.301C339.95 257.201 345.47 263.771 346.7 262.791C347.17 262.421 347.46 262.081 343.7 258.791C341.9 257.171 335.04 252.371 335.04 252.371L314.4 193.281L298.46 202.411L324.64 261.161Z" fill="#FFBE9D"/>
<path d="M201.77 149.401L178.71 121.881C178.419 120.932 178.041 120.011 177.58 119.131C177.045 118.033 176.284 117.061 175.346 116.279C174.409 115.496 173.316 114.921 172.14 114.591C170.68 114.271 169 114.431 167.85 113.471C167.34 113.041 167 112.471 166.46 112.031C165.92 111.591 165.03 111.551 164.68 112.121C164.59 112.344 164.553 112.584 164.57 112.823C164.587 113.062 164.659 113.294 164.78 113.501C165.646 115.537 167.024 117.315 168.78 118.661C166.62 119.321 163.53 120.321 163.53 120.321C163.53 120.321 158.66 115.031 156.16 115.041C153.66 115.051 158.16 119.771 158.16 119.771C158.16 119.771 154.16 116.071 152.92 117.111C151.68 118.151 154.86 120.901 154.86 120.901C153.905 120.252 152.764 119.932 151.61 119.991C150.48 120.181 149.51 121.511 150.12 122.481C150.38 122.831 150.724 123.109 151.12 123.291L157.26 126.711C158.243 127.366 159.367 127.778 160.54 127.911C163.66 128.011 166.03 126.081 169.14 126.161C169.14 126.161 186.53 162.771 188.29 164.661C190.05 166.551 228.29 169.121 228.29 169.121L250.4 150.071L201.77 149.401Z" fill="#FFBE9D"/>
<path d="M271.05 348.83L294.6 359.08L282 388.45C279.26 387.08 280.16 369.45 280.16 369.45L264.8 363.5L271.05 348.83Z" fill="#E36396"/>
<g opacity="0.6">
<path opacity="0.6" d="M282.77 359.84C282.977 359.593 283.268 359.431 283.587 359.385C283.906 359.338 284.231 359.412 284.5 359.59C284.752 359.79 284.918 360.078 284.964 360.396C285.011 360.714 284.934 361.037 284.75 361.3C284.531 361.56 284.224 361.729 283.888 361.776C283.552 361.822 283.21 361.741 282.93 361.55C282.685 361.317 282.541 360.997 282.528 360.659C282.515 360.322 282.634 359.992 282.86 359.74" fill="white"/>
</g>
<path opacity="0.6" d="M294.6 359.081L292.18 358.141L281 386.651C281 386.651 281 388.211 282 388.451L294.6 359.081Z" fill="white"/>
<path d="M279.79 369.88C279.94 369.93 280.31 369.24 281.08 368.74C281.85 368.24 282.6 368.11 282.6 367.96C282.6 367.81 281.68 367.66 280.77 368.29C279.86 368.92 279.65 369.85 279.79 369.88Z" fill="#263238"/>
<path d="M279.74 373.5C279.87 373.6 280.38 373.08 281.2 372.85C282.02 372.62 282.71 372.76 282.77 372.62C282.83 372.48 282.05 372.03 281.04 372.33C280.03 372.63 279.61 373.44 279.74 373.5Z" fill="#263238"/>
<path d="M282.68 376.84C282.77 376.72 282.13 376.21 281.19 376.24C280.25 376.27 279.65 376.81 279.74 376.92C279.83 377.03 280.43 376.8 281.21 376.79C281.99 376.78 282.6 377 282.68 376.84Z" fill="#263238"/>
<path d="M276.44 368.131C276.6 368.131 276.68 367.381 277.09 366.601C277.5 365.821 278.02 365.291 277.93 365.161C277.84 365.031 277.06 365.421 276.6 366.351C276.14 367.281 276.3 368.151 276.44 368.131Z" fill="#263238"/>
<path d="M273.26 365.931C273.32 365.931 273.65 365.431 273.88 364.461C274.017 363.891 274.081 363.306 274.07 362.721C274.065 362.386 274.039 362.052 273.99 361.721C273.968 361.517 273.914 361.318 273.83 361.131C273.77 360.993 273.665 360.88 273.532 360.81C273.4 360.739 273.248 360.715 273.1 360.741C272.969 360.766 272.846 360.824 272.741 360.907C272.637 360.991 272.554 361.098 272.5 361.221C272.419 361.409 272.365 361.608 272.34 361.811C272.18 362.745 272.259 363.705 272.57 364.601C272.9 365.551 273.34 366.011 273.39 365.971C273.44 365.931 273.16 365.401 272.93 364.491C272.806 363.956 272.749 363.409 272.76 362.861C272.768 362.525 272.801 362.191 272.86 361.861C272.91 361.521 273.02 361.251 273.2 361.231C273.38 361.211 273.28 361.231 273.35 361.331C273.403 361.473 273.44 361.62 273.46 361.771C273.517 362.101 273.554 362.435 273.57 362.771C273.6 363.322 273.577 363.874 273.5 364.421C273.386 364.918 273.306 365.423 273.26 365.931Z" fill="#263238"/>
<path d="M273.54 365.84C273.54 365.84 273.2 365.29 272.29 364.84C271.756 364.579 271.181 364.413 270.59 364.35C270.258 364.313 269.922 364.313 269.59 364.35C269.362 364.347 269.136 364.403 268.935 364.511C268.734 364.62 268.564 364.777 268.44 364.97C268.389 365.102 268.375 365.246 268.402 365.386C268.429 365.526 268.494 365.655 268.59 365.76C268.732 365.907 268.894 366.035 269.07 366.14C269.38 366.333 269.717 366.478 270.07 366.57C270.655 366.714 271.266 366.714 271.85 366.57C272.85 366.32 273.29 365.8 273.25 365.77C272.768 365.937 272.278 366.078 271.78 366.19C271.251 366.265 270.712 366.225 270.2 366.07C269.903 365.976 269.62 365.841 269.36 365.67C269.07 365.49 268.87 365.27 268.95 365.17C269.036 365.069 269.144 364.989 269.265 364.936C269.386 364.882 269.518 364.856 269.65 364.86C269.983 364.827 270.318 364.827 270.65 364.86C271.193 364.897 271.729 365.012 272.24 365.2C273 365.52 273.49 365.9 273.54 365.84Z" fill="#263238"/>
<path d="M252.91 389.171L262.65 409.581L265.7 428.001C265.752 428.314 265.868 428.613 266.04 428.88C266.213 429.147 266.438 429.375 266.703 429.55C266.967 429.726 267.265 429.845 267.578 429.9C267.891 429.955 268.211 429.945 268.52 429.871C268.88 429.788 269.214 429.619 269.495 429.378C269.775 429.138 269.993 428.834 270.13 428.491C271.92 424.061 278.43 407.711 277.63 406.261C276.71 404.581 268.78 384.051 268.78 384.051L252.91 389.171Z" fill="#E36396"/>
<path opacity="0.6" d="M268.52 429.82L277 404.82L277.4 405.69C277.739 406.445 277.8 407.295 277.57 408.09C276.95 410.22 275.12 416.09 270.19 428.41C270.05 428.765 269.825 429.08 269.533 429.326C269.242 429.572 268.893 429.742 268.52 429.82Z" fill="white"/>
<g opacity="0.6">
<path opacity="0.6" d="M269.78 400.071C269.61 400.37 269.556 400.721 269.63 401.058C269.704 401.394 269.9 401.691 270.18 401.891C270.474 402.073 270.827 402.135 271.166 402.064C271.505 401.993 271.803 401.795 272 401.511C272.176 401.191 272.228 400.818 272.147 400.462C272.066 400.106 271.857 399.793 271.56 399.581C271.234 399.423 270.86 399.398 270.516 399.512C270.173 399.626 269.887 399.869 269.72 400.191" fill="white"/>
</g>
<path d="M269.18 418.69C268.424 418.203 267.549 417.929 266.65 417.897C265.751 417.865 264.859 418.077 264.07 418.51C264.07 418.51 264.22 418.19 264.67 417.91C265.272 417.547 265.968 417.37 266.67 417.4C267.368 417.421 268.045 417.643 268.62 418.04C269.06 418.36 269.22 418.65 269.18 418.69Z" fill="#263238"/>
<path d="M269 422.111C268.262 422.043 267.521 422.023 266.78 422.051C266.058 422.223 265.347 422.437 264.65 422.691C264.54 422.611 265.34 421.691 266.71 421.551C267.109 421.454 267.525 421.454 267.924 421.552C268.322 421.649 268.691 421.841 269 422.111Z" fill="#263238"/>
<path d="M270.32 413.92C269.19 413.723 268.047 413.613 266.9 413.59C265.757 413.718 264.627 413.939 263.52 414.25C264.503 413.551 265.666 413.148 266.872 413.089C268.077 413.031 269.274 413.319 270.32 413.92Z" fill="#263238"/>
<path d="M267.88 407.47C267.88 407.62 266.53 407.65 265.02 408.27C263.51 408.89 262.5 409.76 262.4 409.65C262.972 408.767 263.835 408.113 264.84 407.8C265.782 407.335 266.859 407.218 267.88 407.47Z" fill="#263238"/>
<path d="M265.17 401.4C264.141 401.517 263.132 401.773 262.17 402.16C261.279 402.681 260.464 403.324 259.75 404.07C259.7 404.07 259.8 403.68 260.16 403.2C260.631 402.565 261.248 402.053 261.96 401.71C262.665 401.358 263.443 401.179 264.23 401.19C264.83 401.21 265.18 401.35 265.17 401.4Z" fill="#263238"/>
<path d="M261.69 401C261.517 400.769 261.388 400.508 261.31 400.23C261.064 399.483 260.965 398.695 261.02 397.91C261.009 397.332 261.188 396.766 261.53 396.3C261.654 396.164 261.814 396.068 261.992 396.024C262.17 395.979 262.357 395.988 262.53 396.05C262.867 396.215 263.133 396.495 263.28 396.84C263.545 397.555 263.553 398.34 263.301 399.059C263.049 399.778 262.553 400.387 261.9 400.78C261.248 401.155 260.499 401.329 259.748 401.279C258.997 401.23 258.277 400.958 257.68 400.5C257.528 400.381 257.405 400.229 257.318 400.056C257.232 399.883 257.185 399.693 257.18 399.5C257.19 399.309 257.261 399.126 257.381 398.977C257.501 398.828 257.665 398.72 257.85 398.67C258.409 398.557 258.988 398.592 259.53 398.77C260.295 398.97 261.017 399.309 261.66 399.77C262.11 400.08 262.31 400.31 262.29 400.34C261.411 399.796 260.453 399.391 259.45 399.14C258.972 398.999 258.466 398.981 257.98 399.09C257.878 399.116 257.788 399.173 257.721 399.254C257.654 399.335 257.616 399.435 257.61 399.54C257.628 399.663 257.67 399.781 257.733 399.887C257.797 399.993 257.881 400.086 257.98 400.16C258.506 400.542 259.13 400.765 259.779 400.803C260.428 400.84 261.074 400.69 261.64 400.37C262.207 400.04 262.642 399.524 262.872 398.91C263.102 398.296 263.112 397.621 262.9 397C262.81 396.754 262.632 396.551 262.4 396.43C262.305 396.386 262.198 396.375 262.095 396.396C261.993 396.418 261.9 396.472 261.83 396.55C261.537 396.943 261.376 397.42 261.37 397.91C261.294 398.951 261.403 399.997 261.69 401Z" fill="#263238"/>
<path d="M285.73 351.32L259.02 333.32L267.86 246.53L242.56 231.76L219.43 226.4C219.43 226.4 209.77 246.5 205.43 259.4C196.29 286.77 189.88 296.58 191.35 316.4C191.81 322.68 214.99 338.4 229.63 347.11C229.794 348.853 230.055 350.586 230.41 352.3C235.41 374.92 250.69 405 250.69 405L273.89 394.21L266.41 368.56L274.21 373.11L285.73 351.32ZM228.32 295.32L231.44 281.41C230.78 290.26 230.18 299.49 229.75 308.34C228.242 304.187 227.752 299.732 228.32 295.35V295.32Z" fill="#263238"/>
<path d="M250.73 405.001C250.659 404.883 250.598 404.759 250.55 404.631L250.06 403.541L248.27 399.311C246.73 395.621 244.52 390.311 241.87 383.661C239.22 377.011 236.08 369.131 232.87 360.231C232.08 358.001 231.31 355.711 230.58 353.341C230.26 352.141 229.85 350.961 229.64 349.691C229.58 349.381 229.51 349.061 229.46 348.751L229.35 347.801L229.14 345.901C228.86 343.341 228.637 340.734 228.47 338.081C228.39 336.761 228.32 335.421 228.26 334.081C228.2 332.741 228.16 331.371 228.26 330.001C228.66 319.101 229.57 308.761 230.33 299.351C231.09 289.941 231.82 281.481 232.42 274.351C233.02 267.221 233.42 261.481 233.62 257.491C233.75 255.491 233.82 253.951 233.86 252.911L233.93 251.711C233.912 251.578 233.912 251.443 233.93 251.311C233.941 251.444 233.941 251.577 233.93 251.711C233.93 252.011 233.93 252.401 233.93 252.911C233.93 253.961 233.88 255.511 233.79 257.501C233.62 261.501 233.27 267.261 232.74 274.381C232.21 281.501 231.5 289.971 230.74 299.381C229.98 308.791 229.11 319.131 228.74 330.001C228.66 331.361 228.74 332.701 228.74 334.051C228.74 335.401 228.86 336.721 228.95 338.051C229.11 340.717 229.327 343.314 229.6 345.841L229.81 347.751L229.92 348.691C229.97 349.001 230.04 349.301 230.1 349.611C230.3 350.831 230.7 352.021 231.02 353.211C231.73 355.561 232.5 357.851 233.28 360.081C236.42 368.971 239.53 376.881 242.13 383.531C244.73 390.181 246.9 395.531 248.39 399.231C249.12 401.071 249.7 402.501 250.1 403.501C250.28 403.971 250.43 404.341 250.53 404.611C250.63 404.881 250.73 405.001 250.73 405.001Z" fill="#455A64"/>
<path d="M232.87 248.37C232.87 248.37 232.64 248.23 232.27 247.88C231.792 247.342 231.41 246.727 231.14 246.06C230.349 243.854 229.962 241.523 230 239.18C229.97 236.842 230.08 234.505 230.33 232.18C230.377 231.22 230.511 230.266 230.73 229.33C230.812 230.288 230.812 231.252 230.73 232.21C230.64 233.98 230.5 236.43 230.54 239.13C230.524 241.425 230.862 243.708 231.54 245.9C231.775 246.543 232.095 247.151 232.49 247.71C232.73 248.12 232.9 248.35 232.87 248.37Z" fill="#455A64"/>
<path d="M222.89 227.721C223.126 228.504 223.194 229.329 223.09 230.141C222.957 232.132 222.295 234.051 221.171 235.7C220.048 237.349 218.504 238.668 216.7 239.521C215.98 239.913 215.187 240.151 214.37 240.221C214.37 240.141 215.24 239.901 216.54 239.221C218.232 238.32 219.68 237.023 220.76 235.44C221.84 233.856 222.52 232.035 222.74 230.131C222.91 228.651 222.8 227.721 222.89 227.721Z" fill="#455A64"/>
<path d="M264.39 278.18C264.39 278.18 264.39 278.27 264.39 278.44C264.39 278.61 264.39 278.9 264.33 279.21C264.25 279.93 264.15 280.93 264.03 282.21C263.74 284.82 263.34 288.53 262.84 293.09C261.84 302.32 260.36 314.99 258.78 329C258.217 335.595 258.659 342.237 260.09 348.7C260.717 351.515 261.522 354.287 262.5 357C263.4 359.56 264.23 361.95 265 364.14C266.51 368.48 267.73 372.01 268.59 374.49C268.99 375.69 269.31 376.63 269.59 377.31L269.83 378.05C269.864 378.129 269.884 378.214 269.89 378.3C269.89 378.3 269.89 378.23 269.78 378.06C269.67 377.89 269.61 377.64 269.5 377.34C269.24 376.67 268.9 375.74 268.5 374.55L264.76 364.26C263.98 362.08 263.12 359.69 262.2 357.14C261.198 354.412 260.373 351.623 259.73 348.79C258.258 342.286 257.796 335.594 258.36 328.95C259.92 314.9 261.48 302.24 262.57 293.05C263.14 288.49 263.57 284.78 263.92 282.18C264.08 280.92 264.21 279.94 264.31 279.18C264.31 278.87 264.39 278.62 264.42 278.42C264.399 278.342 264.389 278.261 264.39 278.18Z" fill="#455A64"/>
<path d="M219.43 226.251L223.53 215.781L232.88 229.721L220.41 226.611" fill="#FFBE9D"/>
<path d="M317.25 194.78L306.16 169.91C304.83 165.91 302.34 165.29 300.26 162.97L272.47 147.3C252.21 139 241.18 166.82 241.18 166.82L222.77 208.82C201.12 215.99 216.45 232.62 216.45 232.62C216.45 232.62 210.56 222.38 216.36 218.69C222.42 214.82 229.14 225.01 235.6 234.69C243.23 246.11 268.01 253.53 268.01 253.53C270.91 250.47 270.1 239.78 272.37 234.04C273.09 232.23 290.25 192.48 290.25 192.48L296.9 208.59C296.9 208.59 305.42 198.59 309.56 197.01C312.055 196.05 314.628 195.304 317.25 194.78Z" fill="#E36396"/>
<path d="M268 212.461C267.745 212.692 267.463 212.89 267.16 213.051C266.352 213.52 265.506 213.918 264.63 214.241C261.717 215.339 258.57 215.666 255.494 215.191C252.418 214.716 249.516 213.456 247.07 211.531C246.331 210.961 245.645 210.325 245.02 209.631C244.772 209.396 244.563 209.122 244.4 208.821C244.47 208.751 245.4 209.881 247.28 211.251C249.723 213.054 252.567 214.237 255.568 214.701C258.568 215.164 261.637 214.893 264.51 213.911C266.73 213.171 268 212.381 268 212.461Z" fill="#263238"/>
<path d="M222 173.001L239.15 174.621L266.59 145.621L250.45 145.061L221.72 147.901C223.232 156.191 223.326 164.678 222 173.001Z" fill="#E36396"/>
<path d="M245.77 157.74C245.728 157.927 245.658 158.106 245.56 158.27L244.87 159.75C244.25 161.09 243.38 162.94 242.33 165.18C240.2 169.78 237.33 176.18 234.33 183.28C231.33 190.38 228.47 196.81 226.33 201.42C225.28 203.73 224.41 205.58 223.79 206.86L223.06 208.32C222.983 208.498 222.886 208.666 222.77 208.82C222.821 208.635 222.888 208.454 222.97 208.28L223.61 206.78L226.01 201.28C228.01 196.57 230.8 190.16 233.84 183.08C236.88 176 239.84 169.6 242.01 165.03C243.12 162.75 244.01 160.92 244.7 159.66C245.02 159.08 245.27 158.6 245.47 158.22C245.553 158.05 245.653 157.889 245.77 157.74Z" fill="#263238"/>
<path d="M298.12 166.17C298.17 166.26 297.12 166.81 295.65 168.05C294.807 168.773 294.034 169.573 293.34 170.44C292.495 171.511 291.765 172.667 291.16 173.89C290.58 175.121 290.124 176.408 289.8 177.73C289.548 178.817 289.401 179.925 289.36 181.04C289.29 182.94 289.51 184.12 289.41 184.13C289.305 183.871 289.237 183.598 289.21 183.32C289.135 182.991 289.088 182.657 289.07 182.32C289.019 181.882 288.995 181.441 289 181C288.993 179.857 289.11 178.717 289.35 177.6C289.65 176.221 290.103 174.879 290.7 173.6C291.326 172.347 292.087 171.167 292.97 170.08C293.701 169.206 294.522 168.411 295.42 167.71C295.759 167.432 296.116 167.178 296.49 166.95C296.759 166.757 297.043 166.587 297.34 166.44C297.584 166.309 297.847 166.218 298.12 166.17Z" fill="#263238"/>
<path d="M302.91 126.34L286.82 156.42C285.552 158.785 283.435 160.583 280.895 161.451C278.355 162.32 275.581 162.194 273.13 161.1C271.809 160.502 270.625 159.64 269.65 158.568C268.675 157.495 267.93 156.233 267.462 154.862C266.993 153.49 266.811 152.036 266.926 150.591C267.041 149.146 267.451 147.74 268.13 146.46L270.9 141.24C270.9 141.24 263.9 136.71 267.18 129.15C270.1 122.41 280.82 103.37 283.09 99.3496L296.65 105.42C298.455 106.361 300.053 107.655 301.35 109.224C302.646 110.794 303.615 112.607 304.198 114.557C304.782 116.508 304.969 118.555 304.747 120.579C304.526 122.603 303.901 124.562 302.91 126.34Z" fill="#FFBE9D"/>
<path d="M270.9 141.131C274.344 142.748 278.19 143.305 281.95 142.731C281.95 142.731 277.21 147.101 270.01 143.071L270.9 141.131Z" fill="#EB996E"/>
<path d="M276.07 117.081C275.942 117.36 275.928 117.678 276.03 117.968C276.133 118.257 276.345 118.495 276.62 118.631C276.752 118.703 276.896 118.747 277.045 118.762C277.194 118.777 277.345 118.762 277.488 118.719C277.632 118.675 277.765 118.603 277.88 118.507C277.995 118.412 278.09 118.294 278.16 118.161C278.288 117.882 278.302 117.564 278.199 117.275C278.097 116.985 277.885 116.747 277.61 116.611C277.478 116.54 277.334 116.495 277.184 116.48C277.035 116.465 276.885 116.48 276.741 116.524C276.598 116.568 276.465 116.639 276.35 116.735C276.234 116.831 276.139 116.948 276.07 117.081Z" fill="#263238"/>
<path d="M276.13 116.131C276.2 116.331 277.28 116.131 278.44 116.611C279.6 117.091 280.18 118.081 280.37 118.001C280.56 117.921 280.43 117.651 280.19 117.221C279.843 116.652 279.33 116.202 278.72 115.931C278.118 115.661 277.446 115.588 276.8 115.721C276.33 115.831 276.09 116.001 276.13 116.131Z" fill="#263238"/>
<path d="M286.88 122.401C286.749 122.68 286.734 122.999 286.837 123.289C286.94 123.579 287.153 123.817 287.43 123.951C287.563 124.022 287.708 124.066 287.857 124.081C288.007 124.095 288.158 124.079 288.301 124.034C288.444 123.99 288.577 123.917 288.692 123.82C288.807 123.724 288.902 123.605 288.97 123.471C289.095 123.193 289.108 122.878 289.005 122.591C288.903 122.303 288.693 122.067 288.42 121.931C288.289 121.858 288.144 121.813 287.995 121.797C287.845 121.781 287.694 121.796 287.551 121.84C287.407 121.884 287.273 121.956 287.158 122.052C287.043 122.149 286.949 122.268 286.88 122.401Z" fill="#263238"/>
<path d="M287.39 121.421C287.46 121.621 288.54 121.421 289.7 121.901C290.86 122.381 291.44 123.381 291.63 123.301C291.82 123.221 291.7 122.951 291.45 122.511C291.102 121.945 290.589 121.499 289.98 121.231C289.379 120.957 288.706 120.883 288.06 121.021C287.59 121.131 287.35 121.331 287.39 121.421Z" fill="#263238"/>
<path d="M279.36 128.111C278.836 127.653 278.258 127.261 277.64 126.941C277.36 126.771 277.1 126.591 277.14 126.371C277.18 126.151 277.44 125.861 277.73 125.581L279.61 123.721C281.27 122.178 282.805 120.506 284.2 118.721C282.411 120.118 280.738 121.66 279.2 123.331L277.35 125.221C277.006 125.494 276.768 125.88 276.68 126.311C276.679 126.434 276.704 126.555 276.754 126.668C276.804 126.78 276.878 126.88 276.97 126.961C277.115 127.076 277.273 127.173 277.44 127.251C278.038 127.624 278.684 127.914 279.36 128.111Z" fill="#263238"/>
<path d="M282.4 130.43C282.22 130.34 281.66 131.59 280.19 132C278.72 132.41 277.44 131.68 277.35 131.85C277.26 132.02 277.54 132.22 278.1 132.49C278.828 132.831 279.654 132.902 280.43 132.69C281.178 132.492 281.817 132.007 282.21 131.34C282.49 130.84 282.49 130.47 282.4 130.43Z" fill="#263238"/>
<path d="M289.12 116.761C289.12 117.131 290.31 117.491 291.59 118.261C292.87 119.031 293.81 119.891 294.11 119.691C294.25 119.591 294.19 119.211 293.89 118.691C293.464 118.057 292.9 117.527 292.24 117.14C291.58 116.754 290.842 116.522 290.08 116.461C289.5 116.461 289.13 116.591 289.12 116.761Z" fill="#263238"/>
<path d="M278.05 113C278.14 113.36 279.05 113.44 280.05 113.85C281.05 114.26 281.74 114.85 282.05 114.63C282.36 114.41 282.19 114.21 281.94 113.81C281.611 113.291 281.124 112.891 280.55 112.67C279.983 112.425 279.353 112.365 278.75 112.5C278.25 112.58 278 112.8 278.05 113Z" fill="#263238"/>
<path d="M297.85 130.85C298.01 130.85 303.7 131.63 301.24 136.7C298.78 141.77 294.24 138.25 294.24 138.1C294.24 137.95 297.85 130.85 297.85 130.85Z" fill="#FFBE9D"/>
<path d="M296.74 136.931C296.74 136.931 296.8 137.031 296.91 137.181C297.08 137.371 297.316 137.489 297.57 137.511C298.004 137.468 298.419 137.308 298.771 137.05C299.123 136.791 299.399 136.443 299.57 136.041C299.793 135.614 299.92 135.143 299.94 134.661C299.968 134.48 299.952 134.294 299.893 134.12C299.834 133.945 299.733 133.788 299.6 133.661C299.51 133.586 299.397 133.545 299.28 133.545C299.163 133.545 299.05 133.586 298.96 133.661C298.83 133.771 298.81 133.881 298.78 133.881C298.75 133.881 298.71 133.741 298.85 133.551C298.942 133.439 299.069 133.362 299.21 133.331C299.401 133.295 299.598 133.335 299.76 133.441C299.947 133.584 300.094 133.772 300.189 133.987C300.283 134.202 300.321 134.437 300.3 134.671C300.302 135.214 300.171 135.75 299.92 136.231C299.726 136.695 299.399 137.091 298.981 137.37C298.564 137.649 298.073 137.799 297.57 137.801C297.415 137.77 297.268 137.707 297.139 137.616C297.01 137.525 296.901 137.407 296.82 137.271C296.69 137.061 296.72 136.931 296.74 136.931Z" fill="#EB996E"/>
<path d="M300.79 132.001C300.319 131.763 299.794 131.653 299.267 131.683C298.741 131.713 298.231 131.881 297.79 132.171C297.13 132.751 296.68 133.551 296.02 134.171C295.716 134.493 295.313 134.706 294.875 134.774C294.437 134.843 293.989 134.765 293.6 134.551C293.373 134.348 293.203 134.088 293.108 133.798C293.013 133.509 292.997 133.199 293.06 132.901C293.194 132.302 293.442 131.735 293.79 131.231C295.16 128.971 296.73 126.811 297.91 124.441C299.194 122.1 299.754 119.43 299.52 116.771C299.385 115.448 298.895 114.186 298.103 113.118C297.312 112.05 296.246 111.215 295.02 110.701C293.37 110.121 291.53 110.291 289.84 109.811C288.84 109.51 287.921 108.987 287.152 108.281C286.383 107.574 285.784 106.702 285.4 105.731C285.201 105.339 284.981 104.958 284.74 104.591C284.8 104.471 285.4 103.451 285.99 103.251C290.45 101.741 296.48 103.471 300.17 106.381C302.054 107.844 303.595 109.701 304.687 111.822C305.778 113.943 306.394 116.277 306.49 118.661C306.54 123.361 303.58 128.541 300.83 132.041" fill="#263238"/>
<path d="M300.84 131.451C302.25 129.051 304.53 127.321 306.27 125.161C308.01 123.001 309.27 119.951 307.97 117.471C307.55 116.621 306.87 115.911 306.52 115.031C306.243 114.117 306.075 113.174 306.02 112.221C305.794 110.764 305.242 109.378 304.403 108.165C303.565 106.953 302.463 105.946 301.18 105.221C299.4 104.221 297.35 103.821 295.54 102.871C292.69 101.371 290.6 98.5905 287.54 97.4005C287.058 97.1653 286.532 97.0348 285.996 97.0176C285.46 97.0004 284.926 97.0968 284.43 97.3005C284.193 97.416 283.982 97.5801 283.813 97.7822C283.643 97.9844 283.518 98.22 283.445 98.4737C283.372 98.7275 283.354 98.9937 283.391 99.255C283.428 99.5164 283.52 99.7669 283.66 99.9905C283.601 99.7602 283.492 99.5455 283.341 99.3617C283.19 99.1779 283.001 99.0293 282.787 98.9264C282.572 98.8235 282.338 98.7687 282.1 98.766C281.862 98.7633 281.627 98.8126 281.41 98.9105C280.985 99.1424 280.637 99.4949 280.411 99.9237C280.185 100.352 280.091 100.838 280.14 101.321C280.258 102.283 280.634 103.196 281.23 103.961C283.085 106.589 285.814 108.471 288.93 109.271L295.84 108.731L301.5 112.921L305.68 119.591L298.09 129.451L300.84 131.451Z" fill="#263238"/>
<path d="M257.65 92.1006C257.369 87.7435 255.923 83.5418 253.463 79.9344C251.004 76.327 247.62 73.4464 243.667 71.5934C239.713 69.7405 235.335 68.9833 230.989 69.4008C226.643 69.8184 222.488 71.3954 218.96 73.9672C215.432 76.539 212.659 80.0111 210.931 84.0208C209.203 88.0305 208.584 92.4306 209.137 96.7615C209.691 101.092 211.398 105.195 214.079 108.641C216.76 112.087 220.318 114.749 224.38 116.351C224.57 119.231 224.78 122.491 224.78 122.491L246.1 121.111C246.1 121.111 246.01 117.661 245.85 114.581C249.693 112.281 252.828 108.965 254.91 104.999C256.992 101.033 257.94 96.5703 257.65 92.1006Z" fill="#557DAC"/>
<path d="M238.38 121.511C238.38 121.511 238.38 121.401 238.38 121.211C238.38 121.021 238.38 120.701 238.38 120.321C238.38 119.551 238.49 118.401 238.61 116.931C238.73 115.461 238.9 113.651 239.23 111.581C239.595 109.223 240.188 106.905 241 104.661C241.478 103.355 242.07 102.093 242.77 100.891C243.151 100.235 243.691 99.6845 244.34 99.2911C244.691 99.0952 245.084 98.9866 245.486 98.9744C245.888 98.9622 246.287 99.0469 246.65 99.2211C247.034 99.4059 247.331 99.732 247.48 100.131C247.644 100.535 247.644 100.987 247.48 101.391C247.123 102.168 246.493 102.788 245.71 103.131C244.884 103.454 244.003 103.611 243.117 103.591C242.23 103.571 241.357 103.375 240.547 103.015C239.737 102.655 239.006 102.138 238.397 101.494C237.788 100.849 237.313 100.09 237 99.2611C236.63 98.3771 236.516 97.4069 236.67 96.4611C236.754 95.9582 237.01 95.5002 237.395 95.1661C237.78 94.832 238.27 94.6428 238.78 94.6311C239.044 94.6397 239.301 94.7159 239.527 94.8525C239.753 94.9891 239.94 95.1814 240.07 95.4111C240.339 95.8546 240.441 96.379 240.36 96.8911C240.125 97.8775 239.582 98.7635 238.81 99.4211C238.075 100.128 237.198 100.672 236.239 101.016C235.279 101.361 234.257 101.499 233.24 101.421C232.221 101.325 231.24 100.984 230.382 100.427C229.523 99.8697 228.812 99.1128 228.31 98.2211C228.052 97.7818 227.887 97.2937 227.827 96.7878C227.767 96.2818 227.812 95.7688 227.96 95.2811C228.032 95.0309 228.159 94.7997 228.33 94.6037C228.502 94.4077 228.714 94.2517 228.953 94.1468C229.191 94.0419 229.45 93.9906 229.71 93.9966C229.971 94.0025 230.226 94.0655 230.46 94.1811C230.92 94.3941 231.304 94.7431 231.56 95.1811C231.799 95.608 231.955 96.0762 232.02 96.5611C232.148 97.4976 232.084 98.4505 231.83 99.3611C231.36 101.146 230.226 102.684 228.66 103.661C227.165 104.578 225.392 104.932 223.66 104.661C222.818 104.582 222.024 104.231 221.4 103.661C221.094 103.363 220.899 102.97 220.846 102.547C220.794 102.124 220.887 101.695 221.11 101.331C221.369 100.996 221.75 100.777 222.17 100.721C222.57 100.67 222.976 100.722 223.35 100.871C224.04 101.208 224.599 101.763 224.94 102.451C225.64 103.731 226.21 104.981 226.79 106.171C229.05 110.951 230.69 114.901 231.79 117.641C232.34 119.011 232.79 120.081 233.03 120.801C233.16 121.161 233.26 121.441 233.34 121.631C233.377 121.726 233.407 121.822 233.43 121.921L233.31 121.641L232.97 120.831L231.68 117.681C230.54 114.961 228.87 111.021 226.59 106.261C226.01 105.081 225.42 103.811 224.73 102.561C224.409 101.924 223.89 101.408 223.25 101.091C222.927 100.939 222.563 100.894 222.213 100.962C221.862 101.03 221.542 101.209 221.3 101.471C221.118 101.788 221.047 102.157 221.098 102.519C221.149 102.881 221.318 103.216 221.58 103.471C222.163 104.003 222.904 104.329 223.69 104.401C225.361 104.65 227.066 104.295 228.5 103.401C229.986 102.449 231.058 100.97 231.5 99.2611C231.744 98.3864 231.806 97.4706 231.68 96.5711C231.651 96.124 231.507 95.6918 231.264 95.3156C231.021 94.9393 230.686 94.6314 230.29 94.4211C230.091 94.3295 229.874 94.2821 229.655 94.2821C229.436 94.2821 229.219 94.3295 229.02 94.4211C228.817 94.5178 228.638 94.6573 228.495 94.8299C228.352 95.0026 228.248 95.2043 228.19 95.4211C228.055 95.8695 228.015 96.341 228.072 96.8057C228.129 97.2704 228.281 97.7182 228.52 98.1211C229.007 98.9604 229.687 99.6707 230.505 100.193C231.323 100.715 232.254 101.033 233.22 101.121C234.194 101.193 235.173 101.059 236.091 100.726C237.01 100.393 237.848 99.8703 238.55 99.1911C239.265 98.5813 239.772 97.7632 240 96.8511C240.07 96.4051 239.982 95.9486 239.75 95.5611C239.643 95.3749 239.49 95.2186 239.307 95.1068C239.123 94.9949 238.915 94.9311 238.7 94.9211C238.258 94.9239 237.834 95.0915 237.51 95.3911C237.184 95.689 236.966 96.0863 236.89 96.5211C236.742 97.4127 236.85 98.328 237.2 99.1611C237.499 99.9633 237.955 100.698 238.541 101.321C239.128 101.945 239.833 102.445 240.616 102.792C241.398 103.14 242.242 103.328 243.098 103.344C243.954 103.361 244.804 103.207 245.6 102.891C246.323 102.575 246.906 102.006 247.24 101.291C247.383 100.954 247.392 100.575 247.266 100.232C247.14 99.8879 246.887 99.6052 246.56 99.4411C246.232 99.2829 245.871 99.2057 245.508 99.2162C245.144 99.2266 244.788 99.3243 244.47 99.5011C243.864 99.8732 243.36 100.388 243 101.001C242.306 102.188 241.717 103.432 241.24 104.721C240.418 106.944 239.816 109.241 239.44 111.581C239.09 113.651 238.9 115.451 238.76 116.921C238.62 118.391 238.55 119.521 238.48 120.311C238.48 120.681 238.42 120.981 238.41 121.191C238.4 121.401 238.38 121.511 238.38 121.511Z" fill="#263238"/>
<path d="M244.71 125.161L226.41 126.351C226.044 126.373 225.685 126.25 225.41 126.008C225.134 125.767 224.966 125.426 224.94 125.061C224.918 124.697 225.042 124.338 225.283 124.065C225.525 123.791 225.866 123.624 226.23 123.601L244.54 122.421C244.72 122.409 244.901 122.432 245.072 122.49C245.242 122.548 245.4 122.639 245.536 122.758C245.672 122.877 245.782 123.021 245.862 123.183C245.942 123.345 245.989 123.521 246 123.701C246.022 124.066 245.898 124.424 245.657 124.698C245.415 124.971 245.074 125.138 244.71 125.161Z" fill="#263238"/>
<path d="M244.79 126.361L226.48 127.551C226.116 127.575 225.777 127.743 225.537 128.016C225.297 128.29 225.176 128.648 225.2 129.011C225.224 129.375 225.391 129.714 225.665 129.954C225.938 130.194 226.296 130.315 226.66 130.291L228.66 130.161L231.66 135.071C231.83 135.345 232.072 135.568 232.359 135.716C232.646 135.864 232.968 135.931 233.29 135.911L239.83 135.491C240.153 135.466 240.464 135.355 240.73 135.168C240.996 134.982 241.206 134.727 241.34 134.431L243.6 129.201L244.97 129.111C245.32 129.069 245.641 128.894 245.866 128.623C246.092 128.351 246.205 128.003 246.182 127.651C246.159 127.299 246.001 126.969 245.743 126.729C245.484 126.489 245.143 126.358 244.79 126.361Z" fill="#263238"/>
<g opacity="0.2">
<path opacity="0.2" d="M216.69 79.181C218.039 77.7464 219.617 76.5466 221.36 75.631C222.501 75.0071 223.727 74.5555 225 74.291C225.92 74.141 226.45 74.191 226.51 74.381C226.64 74.821 224.84 75.591 222.51 77.381C219.397 79.6459 217.002 82.7585 215.61 86.3473C214.219 89.9362 213.889 93.8497 214.66 97.621C215.19 100.571 216 102.351 215.66 102.621C215.48 102.731 215.06 102.411 214.49 101.681C213.707 100.626 213.093 99.4551 212.67 98.211C212.022 96.359 211.684 94.4129 211.67 92.451C211.623 90.0094 212.048 87.5818 212.92 85.301" fill="white"/>
</g>
<g opacity="0.2">
<path opacity="0.2" d="M232.45 75.0609C230.91 75.1409 229.52 74.8109 229.31 74.0009C229.22 73.6009 229.48 73.1509 230.01 72.7809C230.696 72.3639 231.474 72.1204 232.275 72.0716C233.077 72.0228 233.878 72.1702 234.61 72.5009C235.19 72.8109 235.49 73.2309 235.45 73.6409" fill="white"/>
</g>
<path d="M241 134.88C240.564 134.803 240.133 134.7 239.71 134.57C238.682 134.352 237.627 134.288 236.58 134.38C235.548 134.491 234.538 134.75 233.58 135.15C232.84 135.47 232.4 135.73 232.38 135.69C232.703 135.382 233.079 135.134 233.49 134.96C234.463 134.486 235.513 134.191 236.59 134.09C237.668 133.986 238.756 134.081 239.8 134.37C240.226 134.471 240.632 134.643 241 134.88Z" fill="#455A64"/>
<path d="M243.65 129.26C243.65 129.34 240.35 129.62 236.26 129.89C232.17 130.16 228.87 130.3 228.86 130.21C228.85 130.12 232.16 129.85 236.24 129.59C240.32 129.33 243.64 129.18 243.65 129.26Z" fill="#455A64"/>
<path d="M242.64 131.511C242.052 131.656 241.454 131.753 240.85 131.801C239.74 131.951 238.2 132.111 236.49 132.251C234.78 132.391 233.24 132.461 232.12 132.491C231.518 132.545 230.912 132.545 230.31 132.491C230.903 132.37 231.505 132.303 232.11 132.291L236.47 131.961L240.83 131.601C241.43 131.519 242.035 131.489 242.64 131.511Z" fill="#455A64"/>
<path d="M110.8 254L114.8 260.37C114.8 260.37 131.8 244.76 148.59 249.17C148.56 249.15 133.44 236.33 110.8 254Z" fill="#E36396"/>
<path d="M148.56 249.15C148.56 249.15 161.01 235.63 179.27 238.71L184.27 239.46L182.69 236.59C182.69 236.59 150.9 225.71 148.56 249.15Z" fill="#E36396"/>
<path d="M122.28 203.561C122.28 203.561 97.34 199.271 81 208.121L107 257.001C107 257.001 128.26 236.511 148.6 249.131L122.28 203.561Z" fill="#F5F5F5"/>
<path d="M122.28 203.56C122.331 203.623 122.378 203.69 122.42 203.76L122.79 204.38L124.23 206.81L129.63 216.07L148.75 249.07C148.774 249.112 148.783 249.16 148.777 249.208C148.77 249.256 148.748 249.3 148.714 249.334C148.68 249.368 148.636 249.39 148.588 249.397C148.54 249.403 148.492 249.394 148.45 249.37C145.518 247.557 142.272 246.312 138.88 245.7C137.098 245.411 135.294 245.284 133.49 245.32C131.634 245.402 129.788 245.636 127.97 246.02C120.286 247.908 113.197 251.69 107.35 257.02L107.13 257.22C107.107 257.244 107.08 257.263 107.05 257.276C107.02 257.289 106.988 257.296 106.955 257.296C106.922 257.296 106.89 257.289 106.86 257.276C106.829 257.263 106.802 257.244 106.78 257.22V257.17L80.8099 208.22C80.7961 208.197 80.7872 208.172 80.7838 208.146C80.7804 208.119 80.7825 208.093 80.7901 208.067C80.7976 208.042 80.8104 208.018 80.8276 207.998C80.8448 207.978 80.866 207.961 80.8899 207.95C86.1015 205.35 91.7251 203.675 97.5099 203C101.924 202.457 106.375 202.263 110.82 202.42C114.5 202.55 117.37 202.84 119.31 203.08C120.31 203.2 121.03 203.31 121.53 203.4L122.1 203.5H122.28H122.09L121.52 203.43C121.02 203.37 120.28 203.27 119.3 203.17C117.3 202.97 114.48 202.72 110.81 202.63C106.383 202.507 101.952 202.731 97.5599 203.3C91.8229 204.005 86.2509 205.697 81.0899 208.3L81.1699 208.03L107.17 256.91L106.78 256.84L107 256.64C110.032 253.931 113.367 251.582 116.94 249.64C120.367 247.752 124.043 246.358 127.86 245.5C129.706 245.105 131.583 244.871 133.47 244.8C135.305 244.758 137.14 244.888 138.95 245.19C142.395 245.824 145.692 247.096 148.67 248.94L148.36 249.24L129.45 216.24L124.13 206.9L122.74 204.42C122.59 204.14 122.47 203.93 122.39 203.77C122.348 203.703 122.312 203.632 122.28 203.56Z" fill="#263238"/>
<path d="M161.48 193.53C161.48 193.53 142.62 181.53 122.6 203.53L148.88 249.12C148.88 249.12 154.24 230.62 185.62 237.05L161.48 193.53Z" fill="#F5F5F5"/>
<path d="M161.48 193.531C161.531 193.588 161.575 193.652 161.61 193.721C161.69 193.871 161.81 194.061 161.95 194.311L163.28 196.631L168.28 205.471L185.81 237.001C185.824 237.025 185.833 237.052 185.837 237.08C185.84 237.107 185.838 237.136 185.831 237.163C185.823 237.19 185.811 237.215 185.793 237.237C185.776 237.259 185.754 237.277 185.73 237.291C185.681 237.309 185.628 237.309 185.58 237.291L180.91 236.521C180.112 236.385 179.308 236.295 178.5 236.251L176.04 236.051C175.205 235.981 174.367 235.961 173.53 235.991L171 236.001C170.14 236.001 169.29 236.171 168.43 236.251C167.562 236.322 166.7 236.452 165.85 236.641L163.28 237.221L160.75 238.111C159.918 238.446 159.104 238.824 158.31 239.241C157.897 239.429 157.502 239.653 157.13 239.911L155.98 240.651C155.22 241.161 154.54 241.781 153.83 242.351C153.16 242.979 152.529 243.647 151.94 244.351C150.729 245.772 149.781 247.398 149.14 249.151C149.117 249.213 149.071 249.264 149.011 249.292C148.951 249.32 148.882 249.323 148.82 249.301C148.764 249.281 148.718 249.242 148.69 249.191L147.63 247.361C138.34 231.211 129.63 216.161 122.44 203.591C122.416 203.554 122.403 203.51 122.403 203.466C122.403 203.422 122.416 203.378 122.44 203.341C126.409 198.847 131.25 195.206 136.67 192.641C140.875 190.721 145.485 189.856 150.1 190.121C153.047 190.297 155.948 190.945 158.69 192.041C159.407 192.336 160.109 192.669 160.79 193.041L161.31 193.341L161.47 193.461L161.29 193.371L160.76 193.101C160.29 192.871 159.59 192.531 158.65 192.171C155.142 190.836 151.401 190.217 147.65 190.353C143.898 190.489 140.212 191.376 136.81 192.961C131.452 195.533 126.669 199.163 122.75 203.631V203.391L148 247.191L149.1 249.001L148.64 249.061C149.301 247.237 150.279 245.544 151.53 244.061C152.14 243.338 152.787 242.647 153.47 241.991C154.21 241.401 154.9 240.761 155.68 240.251L156.85 239.491C157.233 239.23 157.637 239.002 158.06 238.811C158.9 238.421 159.69 237.951 160.55 237.651L163.12 236.761L165.74 236.171C166.602 235.977 167.478 235.846 168.36 235.781C169.23 235.701 170.09 235.541 170.95 235.531H173.52C174.363 235.491 175.209 235.511 176.05 235.591L178.53 235.801C179.345 235.84 180.156 235.93 180.96 236.071L185.66 236.861L185.43 237.181C178.26 224.181 172.27 213.291 168.05 205.621C165.96 201.811 164.31 198.791 163.18 196.711L161.9 194.351C161.77 194.091 161.66 193.891 161.58 193.741C161.5 193.591 161.48 193.531 161.48 193.531Z" fill="#263238"/>
<path d="M88 184.619L116.13 238.769C116.13 238.769 138.98 237.769 148.66 248.909L122.6 203.559C122.6 203.559 107.32 184.619 88 184.619Z" fill="#F5F5F5"/>
<path d="M87.9997 184.62H88.7197L90.8797 184.71C91.1197 184.71 91.3797 184.71 91.6397 184.71L92.4697 184.85L94.3497 185.16C95.0781 185.281 95.7967 185.455 96.4997 185.68C97.3147 185.875 98.1191 186.112 98.9098 186.39C105.63 188.63 114.65 194.05 122.75 203.39L148.85 248.71C148.883 248.767 148.891 248.835 148.875 248.899C148.858 248.962 148.817 249.017 148.76 249.05C148.717 249.084 148.664 249.103 148.61 249.103C148.555 249.103 148.502 249.084 148.46 249.05L147.36 247.95C145.268 245.942 142.829 244.333 140.16 243.2C137.575 242.044 134.877 241.16 132.11 240.56C126.859 239.395 121.487 238.865 116.11 238.98C116.067 238.98 116.025 238.97 115.989 238.948C115.952 238.927 115.921 238.897 115.9 238.86C107.7 222.96 100.7 209.37 95.7298 199.75C93.3098 195 91.3697 191.2 89.9997 188.58C89.3497 187.31 88.8397 186.32 88.4897 185.58L88.1097 184.83L87.9897 184.58C88.0495 184.664 88.0998 184.755 88.1397 184.85L88.5597 185.62L90.1397 188.62L95.9997 199.84L116.3 238.66L116.09 238.54C121.503 238.409 126.912 238.933 132.2 240.1C134.996 240.708 137.724 241.599 140.34 242.76C143.061 243.921 145.548 245.568 147.68 247.62L148.82 248.74L148.41 249.03C138.74 232.18 129.79 216.56 122.41 203.67C118.795 199.45 114.658 195.707 110.1 192.53C106.621 190.072 102.827 188.095 98.8197 186.65C98.0326 186.366 97.2316 186.123 96.4197 185.92C95.7241 185.688 95.0122 185.507 94.2897 185.38L92.4197 185.04L91.6097 184.89L90.8698 184.83L87.9997 184.62Z" fill="#263238"/>
<path d="M175.8 338.199L176.4 339.199C177.078 340.325 178.063 341.234 179.24 341.819L180.24 342.339L179.24 342.939C178.118 343.621 177.21 344.605 176.62 345.779L176.1 346.829L175.5 345.829C174.823 344.703 173.837 343.794 172.66 343.209L171.61 342.689L172.61 342.089C173.739 341.414 174.649 340.428 175.23 339.249L175.8 338.199Z" fill="#E36396"/>
<path d="M120.36 131.93L120.96 132.93C121.639 134.053 122.624 134.958 123.8 135.54L124.8 136.06L123.8 136.67C122.67 137.342 121.76 138.329 121.18 139.51L120.66 140.51L120.06 139.51C119.381 138.381 118.392 137.471 117.21 136.89L116.16 136.37L117.16 135.77C118.284 135.085 119.192 134.097 119.78 132.92L120.36 131.93Z" fill="#E36396"/>
<path d="M376.94 167.52L377.54 168.52C378.219 169.648 379.208 170.558 380.39 171.14L381.44 171.66L380.44 172.26C379.317 172.942 378.411 173.93 377.83 175.11L377.31 176.11L376.7 175.11C376.025 173.984 375.038 173.078 373.86 172.5L372.8 172L373.8 171.39C374.931 170.717 375.841 169.73 376.42 168.55L376.94 167.52Z" fill="#E36396"/>
<path d="M346.64 351.15L347.24 352.15C347.922 353.274 348.911 354.18 350.09 354.76L351.14 355.28L350.14 355.89C349.015 356.569 348.106 357.554 347.52 358.73L347.01 359.78L346.4 358.78C345.725 357.652 344.739 356.742 343.56 356.16L342.51 355.64L343.51 355.04C344.639 354.362 345.549 353.372 346.13 352.19L346.64 351.15Z" fill="#E36396"/>
<path d="M352.41 389.74L352.7 389.86C353.018 389.984 353.364 390.019 353.7 389.96L354.01 389.9L353.89 390.19C353.766 390.508 353.731 390.854 353.79 391.19L353.85 391.5L353.56 391.38C353.242 391.257 352.896 391.222 352.56 391.28L352.25 391.34L352.37 391.05C352.494 390.732 352.529 390.386 352.47 390.05L352.41 389.74Z" fill="#E36396"/>
<path d="M369.86 128.811L370.14 128.931C370.459 129.053 370.804 129.088 371.14 129.031L371.44 128.971L371.33 129.261C371.201 129.577 371.167 129.925 371.23 130.261L371.29 130.571L371 130.451C370.682 130.328 370.336 130.294 370 130.351L369.7 130.411L369.81 130.121C369.939 129.804 369.974 129.457 369.91 129.121L369.86 128.811Z" fill="#E36396"/>
<path d="M131.63 105L131.92 105.11C132.237 105.239 132.584 105.273 132.92 105.21H133.23L133.11 105.49C132.988 105.808 132.953 106.154 133.01 106.49L133.07 106.79L132.78 106.68C132.463 106.551 132.116 106.517 131.78 106.58H131.47L131.59 106.3C131.713 105.982 131.747 105.636 131.69 105.3L131.63 105Z" fill="#E36396"/>
<path d="M161 308.16L161.29 308.27C161.606 308.403 161.955 308.438 162.29 308.37L162.6 308.32L162.48 308.61C162.356 308.928 162.322 309.274 162.38 309.61L162.44 309.91L162.15 309.8C161.834 309.671 161.486 309.637 161.15 309.7L160.84 309.76L160.96 309.47C161.083 309.152 161.117 308.806 161.06 308.47L161 308.16Z" fill="#E36396"/>
<path d="M192.91 386.689L192.63 386.979L191.8 387.809L188.57 390.999L176.57 402.569V402.449C177.2 414.999 178 431.999 178.84 450.999V451.419L178.48 451.189L174.15 448.289L146.71 429.919H146.65V429.859C142.55 417.629 139.1 407.309 136.65 400.029C135.45 396.409 134.51 393.549 133.85 391.569L133.13 389.319C133.05 389.079 132.99 388.889 132.95 388.749C132.95 388.609 132.89 388.549 132.9 388.549L132.98 388.729L133.19 389.299C133.37 389.829 133.63 390.569 133.97 391.529L136.87 399.959C139.35 407.229 142.87 417.519 147.01 429.729L146.93 429.629L174.4 447.969L178.73 450.859L178.39 451.049C177.58 432.049 176.85 415.049 176.31 402.479V402.409H176.36L188.44 390.949L191.73 387.859L192.59 387.069C192.8 386.769 192.91 386.689 192.91 386.689Z" fill="#E36396"/>
<path d="M180.13 445.25L180.04 448.08L182.33 449.76L179.61 450.55L178.72 453.24L177.12 450.9L174.29 450.89L176.03 448.65L175.16 445.95L177.83 446.91L180.13 445.25Z" fill="#E36396"/>
<path d="M147.07 426.039L147.13 427.869L148.67 428.869L146.94 429.479L146.47 431.259L145.35 429.809L143.52 429.909L144.55 428.389L143.89 426.679L145.65 427.199L147.07 426.039Z" fill="#E36396"/>
<path d="M132.83 385.109L134.21 386.889L136.46 386.749L135.2 388.619L136.02 390.709L133.86 390.089L132.12 391.519L132.04 389.269L130.15 388.059L132.26 387.289L132.83 385.109Z" fill="#E36396"/>
<path d="M191.52 383.34L192.91 385.11L195.15 384.98L193.89 386.84L194.71 388.94L192.55 388.31L190.81 389.74L190.74 387.49L188.84 386.28L190.96 385.51L191.52 383.34Z" fill="#E36396"/>
<path d="M176.12 400.48L177 401.62L178.43 401.53L177.63 402.72L178.15 404.06L176.77 403.66L175.66 404.57L175.61 403.14L174.4 402.36L175.75 401.87L176.12 400.48Z" fill="#E36396"/>
<path d="M123.19 324.851C134.203 324.851 143.13 315.923 143.13 304.911C143.13 293.898 134.203 284.971 123.19 284.971C112.177 284.971 103.25 293.898 103.25 304.911C103.25 315.923 112.177 324.851 123.19 324.851Z" fill="#557DAC"/>
<g opacity="0.3">
<path opacity="0.3" d="M120.6 311.131C120.602 311.776 120.412 312.408 120.055 312.946C119.697 313.483 119.188 313.903 118.592 314.151C117.996 314.399 117.34 314.464 116.707 314.339C116.073 314.213 115.491 313.903 115.035 313.446C114.578 312.99 114.268 312.408 114.142 311.774C114.017 311.141 114.082 310.485 114.33 309.889C114.578 309.293 114.998 308.784 115.535 308.426C116.073 308.069 116.704 307.879 117.35 307.881C118.211 307.884 119.036 308.227 119.645 308.836C120.254 309.445 120.597 310.27 120.6 311.131Z" fill="white"/>
</g>
<g opacity="0.3">
<path opacity="0.3" d="M116 301.751C116.002 302.128 115.892 302.496 115.685 302.81C115.477 303.123 115.181 303.368 114.834 303.514C114.487 303.659 114.105 303.698 113.736 303.626C113.366 303.554 113.027 303.374 112.76 303.108C112.494 302.843 112.312 302.505 112.237 302.136C112.163 301.767 112.2 301.384 112.344 301.037C112.487 300.689 112.731 300.391 113.044 300.182C113.356 299.973 113.724 299.861 114.1 299.861C114.602 299.861 115.084 300.06 115.44 300.414C115.796 300.768 115.998 301.249 116 301.751Z" fill="white"/>
</g>
<path d="M103.84 309.76C103.93 310.11 86.7701 326.57 91.2001 330.08C95.6301 333.59 114.2 324.59 130.09 311.78C145.98 298.97 160.44 283.41 156.47 279.29C152.5 275.17 132.68 287.36 132.68 287.36L135.05 288.88C135.05 288.88 147.05 281.19 150.83 284.17C154.61 287.15 143.83 298.81 128.56 309.95C113.29 321.09 98.5601 328.89 96.2901 325.84C94.0201 322.79 104.79 312.62 104.79 312.62L103.84 309.76Z" fill="#557DAC"/>
<g opacity="0.3">
<path opacity="0.3" d="M103.84 309.76C103.93 310.11 86.7701 326.57 91.2001 330.08C95.6301 333.59 114.2 324.59 130.09 311.78C145.98 298.97 160.44 283.41 156.47 279.29C152.5 275.17 132.68 287.36 132.68 287.36L135.05 288.88C135.05 288.88 147.05 281.19 150.83 284.17C154.61 287.15 143.83 298.81 128.56 309.95C113.29 321.09 98.5601 328.89 96.2901 325.84C94.0201 322.79 104.79 312.62 104.79 312.62L103.84 309.76Z" fill="black"/>
</g>
<g opacity="0.3">
<path opacity="0.3" d="M112.2 290.86C112.36 291.05 111.01 292.2 109.48 294.5C107.45 297.456 106.331 300.941 106.26 304.525C106.188 308.11 107.169 311.637 109.08 314.67C110.52 317.04 111.82 318.24 111.65 318.42C111.48 318.6 109.95 317.64 108.17 315.28C107.142 313.899 106.326 312.373 105.75 310.75C104.291 306.712 104.38 302.277 106 298.3C106.638 296.698 107.515 295.201 108.6 293.86C110.47 291.58 112.11 290.72 112.2 290.86Z" fill="white"/>
</g>
<path d="M354.363 129.943C360.914 123.648 361.121 113.234 354.826 106.684C348.531 100.133 338.117 99.9259 331.567 106.221C325.016 112.516 324.809 122.93 331.104 129.48C337.399 136.031 347.812 136.238 354.363 129.943Z" fill="#E36396"/>
<g opacity="0.4">
<path opacity="0.4" d="M348.33 111.801C348.342 111.271 348.511 110.757 348.815 110.323C349.12 109.889 349.546 109.555 350.04 109.363C350.534 109.171 351.074 109.13 351.591 109.246C352.108 109.361 352.58 109.626 352.946 110.009C353.313 110.393 353.557 110.876 353.649 111.398C353.741 111.92 353.676 112.457 353.462 112.942C353.248 113.427 352.896 113.838 352.448 114.122C352.001 114.407 351.48 114.553 350.95 114.541C350.598 114.535 350.25 114.458 349.927 114.317C349.605 114.175 349.313 113.971 349.069 113.717C348.826 113.462 348.635 113.162 348.508 112.833C348.381 112.504 348.321 112.153 348.33 111.801Z" fill="black"/>
</g>
<g opacity="0.4">
<path opacity="0.4" d="M353.69 118.061C353.696 117.75 353.794 117.448 353.972 117.193C354.15 116.938 354.4 116.742 354.689 116.629C354.979 116.516 355.296 116.491 355.599 116.559C355.903 116.626 356.18 116.782 356.394 117.006C356.609 117.231 356.753 117.515 356.806 117.821C356.86 118.127 356.821 118.442 356.695 118.727C356.57 119.011 356.362 119.252 356.1 119.418C355.837 119.584 355.531 119.669 355.22 119.661C355.014 119.657 354.811 119.613 354.623 119.53C354.434 119.447 354.264 119.328 354.122 119.179C353.98 119.031 353.868 118.855 353.794 118.663C353.72 118.471 353.685 118.267 353.69 118.061Z" fill="black"/>
</g>
<g opacity="0.4">
<path opacity="0.4" d="M351.6 122.86C351.675 122.86 351.75 122.875 351.819 122.904C351.888 122.934 351.951 122.977 352.003 123.031C352.055 123.085 352.096 123.149 352.123 123.219C352.15 123.29 352.163 123.365 352.16 123.44C352.155 123.593 352.09 123.738 351.98 123.844C351.87 123.95 351.723 124.01 351.57 124.01C351.418 124.005 351.274 123.94 351.169 123.829C351.064 123.719 351.007 123.572 351.01 123.42C351.011 123.344 351.027 123.269 351.058 123.2C351.088 123.131 351.132 123.068 351.187 123.016C351.242 122.964 351.307 122.923 351.378 122.896C351.449 122.87 351.524 122.857 351.6 122.86Z" fill="black"/>
</g>
</svg>
