<svg width="87" height="74" viewBox="0 0 87 74" fill="none" xmlns="http://www.w3.org/2000/svg">
<path d="M1.66992 56.9395H7.04004C8.55176 56.9395 9.86133 57.083 10.9688 57.3701C12.0762 57.6514 12.9932 58.0674 13.7197 58.6182C14.4463 59.1689 14.9854 59.8457 15.3369 60.6484C15.6885 61.4512 15.8643 62.3711 15.8643 63.4082C15.8643 64.334 15.6885 65.1982 15.3369 66.001C14.9854 66.7979 14.4463 67.4951 13.7197 68.0928C12.9932 68.6846 12.0762 69.1504 10.9688 69.4902C9.86133 69.8301 8.55176 70 7.04004 70H1.66992V56.9395ZM6.75 68.084C7.33594 68.084 7.86328 67.9932 8.33203 67.8115C8.80078 67.6299 9.19629 67.3486 9.51855 66.9678C9.84668 66.5869 10.0957 66.1035 10.2656 65.5176C10.4414 64.9258 10.5293 64.2197 10.5293 63.3994C10.5293 62.585 10.4414 61.8906 10.2656 61.3164C10.0898 60.7422 9.83789 60.2734 9.50977 59.9102C9.18164 59.541 8.7832 59.2744 8.31445 59.1104C7.85156 58.9404 7.33301 58.8555 6.75879 58.8555L6.75 68.084ZM17.4287 65.5967C17.4287 65.0928 17.5078 64.6328 17.666 64.2168C17.8242 63.8008 18.041 63.4287 18.3164 63.1006C18.5977 62.7666 18.9287 62.4766 19.3096 62.2305C19.6904 61.9844 20.1035 61.7793 20.5488 61.6152C20.9941 61.4512 21.46 61.3281 21.9463 61.2461C22.4326 61.1641 22.9248 61.123 23.4229 61.123C24.0791 61.123 24.6738 61.1904 25.207 61.3252C25.7461 61.4541 26.2236 61.6328 26.6396 61.8613C27.0615 62.0898 27.4248 62.3564 27.7295 62.6611C28.04 62.9658 28.2949 63.291 28.4941 63.6367C28.6992 63.9766 28.8486 64.3281 28.9424 64.6914C29.042 65.0547 29.0918 65.4092 29.0918 65.7549L22.4473 66.5547C22.5762 67.2051 22.834 67.709 23.2207 68.0664C23.6074 68.4238 24.1494 68.6025 24.8467 68.6025C25.2275 68.6025 25.582 68.5557 25.9102 68.4619C26.2441 68.3682 26.5049 68.2539 26.6924 68.1191L27.3955 69.3496C27.1787 69.4609 26.9414 69.5664 26.6836 69.666C26.4316 69.7656 26.1504 69.8535 25.8398 69.9297C25.5352 70 25.1953 70.0557 24.8203 70.0967C24.4512 70.1436 24.0439 70.167 23.5986 70.167C22.5322 70.167 21.6123 70.0439 20.8389 69.7979C20.0654 69.5459 19.4238 69.2119 18.9141 68.7959C18.4102 68.374 18.0352 67.8877 17.7891 67.3369C17.5488 66.7861 17.4287 66.2061 17.4287 65.5967ZM24.8291 64.8584C24.8291 64.0967 24.7324 63.543 24.5391 63.1973C24.3516 62.8516 24.0703 62.6787 23.6953 62.6787C23.502 62.6787 23.3232 62.7256 23.1592 62.8193C22.9951 62.9131 22.8545 63.0596 22.7373 63.2588C22.6201 63.458 22.5264 63.7158 22.4561 64.0322C22.3857 64.3428 22.3477 64.7207 22.3418 65.166L24.8291 64.8584ZM29.54 61.29H34.5322L36.6152 66.9502L38.6279 61.29H40.5967L37.3535 70H35.5254V69.9912H33.0469L29.54 61.29ZM42.3984 56.9395H48.6826C49.8428 56.9336 50.8418 57.0361 51.6797 57.2471C52.5234 57.4521 53.2178 57.748 53.7627 58.1348C54.3076 58.5215 54.709 58.9873 54.9668 59.5322C55.2305 60.0713 55.3623 60.6719 55.3623 61.334C55.3623 61.9141 55.2393 62.4707 54.9932 63.0039C54.7529 63.5312 54.3779 63.9971 53.8682 64.4014C53.3643 64.8057 52.7197 65.1279 51.9346 65.3682C51.1553 65.6084 50.2266 65.7285 49.1484 65.7285H47.4785V70H42.3984V56.9395ZM47.4785 63.8125C47.8828 63.8066 48.2432 63.7451 48.5596 63.6279C48.876 63.5049 49.1426 63.3379 49.3594 63.127C49.5762 62.9102 49.7402 62.6523 49.8516 62.3535C49.9688 62.0488 50.0273 61.709 50.0273 61.334C50.0273 60.9648 49.9688 60.6309 49.8516 60.332C49.7344 60.0332 49.5645 59.7783 49.3418 59.5674C49.125 59.3506 48.8584 59.1807 48.542 59.0576C48.2314 58.9346 47.877 58.8672 47.4785 58.8555V63.8125ZM56.4521 67.2578C56.4521 66.8359 56.5459 66.4434 56.7334 66.0801C56.9209 65.7168 57.1904 65.4004 57.542 65.1309C57.8936 64.8613 58.3184 64.6504 58.8164 64.498C59.3145 64.3398 59.8711 64.2607 60.4863 64.2607C61.1016 64.2607 61.6758 64.334 62.209 64.4805C62.748 64.6211 63.1992 64.8027 63.5625 65.0254V64.9551C63.5625 64.5449 63.5156 64.1963 63.4219 63.9092C63.334 63.6221 63.1963 63.3877 63.0088 63.2061C62.8213 63.0244 62.5811 62.8926 62.2881 62.8105C62.001 62.7285 61.6611 62.6875 61.2686 62.6875C60.9111 62.6875 60.542 62.7197 60.1611 62.7842C59.7803 62.8428 59.4287 62.9307 59.1064 63.0479L58.4648 61.8613C59.1035 61.5977 59.7627 61.4102 60.4424 61.2988C61.1279 61.1816 61.834 61.123 62.5605 61.123C63.4922 61.123 64.3154 61.2139 65.0303 61.3955C65.751 61.5713 66.3545 61.8379 66.8408 62.1953C67.333 62.5469 67.7051 62.9922 67.957 63.5312C68.209 64.0645 68.335 64.6914 68.335 65.4121V70H63.8789L63.5801 69.1562C63.4043 69.291 63.1963 69.4199 62.9561 69.543C62.7158 69.666 62.4521 69.7744 62.165 69.8682C61.8779 69.9619 61.5732 70.0352 61.251 70.0879C60.9287 70.1406 60.5918 70.167 60.2402 70.167C59.666 70.167 59.1445 70.0938 58.6758 69.9473C58.2129 69.7949 57.8174 69.5898 57.4893 69.332C57.1611 69.0742 56.9062 68.7695 56.7246 68.418C56.543 68.0605 56.4521 67.6738 56.4521 67.2578ZM61.374 67.0732C61.374 67.3896 61.4766 67.6475 61.6816 67.8467C61.8867 68.04 62.1621 68.1367 62.5078 68.1367C62.6953 68.1367 62.8799 68.1074 63.0615 68.0488C63.2432 67.9844 63.4102 67.8906 63.5625 67.7676V66.2822C63.2695 66.1064 62.9473 66.0186 62.5957 66.0186C62.1973 66.0186 61.8926 66.1182 61.6816 66.3174C61.4766 66.5107 61.374 66.7627 61.374 67.0732ZM70.1455 65.6494C70.1455 64.9639 70.2627 64.3428 70.4971 63.7861C70.7373 63.2295 71.0801 62.7549 71.5254 62.3623C71.9707 61.9639 72.5098 61.6592 73.1426 61.4482C73.7812 61.2314 74.4961 61.123 75.2871 61.123C75.8906 61.123 76.4326 61.1963 76.9131 61.3428C77.3936 61.4834 77.8066 61.6709 78.1523 61.9053V55.4893H82.9248V70H78.5303L78.1699 68.9102C78.0059 69.0684 77.8096 69.2236 77.5811 69.376C77.3525 69.5283 77.1006 69.6631 76.8252 69.7803C76.5498 69.8975 76.251 69.9912 75.9287 70.0615C75.6123 70.1318 75.2783 70.167 74.9268 70.167C74.2646 70.167 73.6436 70.0703 73.0635 69.877C72.4834 69.6836 71.9766 69.3994 71.543 69.0244C71.1094 68.6436 70.7666 68.1719 70.5146 67.6094C70.2686 67.041 70.1455 66.3877 70.1455 65.6494ZM75.0674 65.4824C75.0674 65.9863 75.1143 66.417 75.208 66.7744C75.3076 67.1318 75.4424 67.4248 75.6123 67.6533C75.7822 67.876 75.9844 68.04 76.2188 68.1455C76.4531 68.251 76.7109 68.3037 76.9922 68.3037C77.2148 68.3037 77.4229 68.2656 77.6162 68.1895C77.8154 68.1074 77.9941 68.0049 78.1523 67.8818V63.0654C78.0059 62.9365 77.8389 62.8369 77.6514 62.7666C77.4697 62.6963 77.291 62.6611 77.1152 62.6611C76.8223 62.6611 76.5498 62.7168 76.2979 62.8281C76.0518 62.9336 75.835 63.1006 75.6475 63.3291C75.4658 63.5576 75.3223 63.8506 75.2168 64.208C75.1172 64.5596 75.0674 64.9844 75.0674 65.4824Z" fill="#E36396"/>
<path d="M41.8406 5.30476C41.1104 6.98095 36.7294 9.18095 26.1941 13.4762C13.2596 18.819 11.5906 19.7619 11.2777 22.1714C11.0691 23.7429 10.1303 25 8.66994 25.5238C6.47943 26.1524 6.47943 26.1524 8.46132 26.9905C9.60873 27.4095 10.7561 28.8762 11.0691 30.2381C11.4863 32.2286 13.6768 33.5905 20.7699 36.5238C25.7768 38.619 30.0535 40.6095 30.3665 40.9238C30.6794 41.2381 30.4708 42.7048 29.9492 44.2762L28.8018 47H37.5639C46.2216 47 46.3259 47 47.0561 44.0667C47.6819 41.8667 47.9949 41.6571 48.5164 42.9143C49.038 44.4857 51.1242 43.8571 63.4328 38.7238C76.1586 33.5905 77.8276 32.5429 77.8276 30.4476C77.8276 28.8762 78.5578 27.7238 79.9138 27.4095C81.0612 27.0952 82 26.4667 82 26.0476C82 25.6286 81.0612 25 79.9138 24.6857C78.5578 24.3714 77.8276 23.219 77.8276 21.6476C77.8276 19.5524 76.5759 18.7143 69.1698 15.781C57.1742 11.0667 57.3828 11.1714 58.7388 6.77143L59.8862 3H51.3328C43.6138 3 42.7794 3.20952 41.8406 5.30476ZM50.0811 16.3048C48.725 20.8095 46.3259 28.3524 44.8656 33.0667C42.3621 41.2381 42.0492 41.7619 39.2328 41.7619H36.3121L38.8156 33.5905C40.2759 29.1905 42.5707 21.6476 44.0311 16.8286C46.5345 8.65714 46.8475 8.23809 49.6638 8.23809H52.5845L50.0811 16.3048ZM36.1035 19.1333C36.1035 22.381 35.6863 22.9048 32.244 23.9524C26.2984 25.8381 26.0897 26.6762 31.3053 28.1429C35.7906 29.4 36.1035 29.7143 36.1035 32.9619C36.1035 34.9524 35.7906 36.5238 35.3733 36.5238C34.9561 36.5238 30.4708 34.8476 25.4639 32.7524C17.0148 29.1905 16.2846 28.6667 16.2846 26.0476C16.2846 23.3238 17.0148 22.8 25.4639 19.4476C30.4708 17.3524 34.8518 15.6762 35.3733 15.5714C35.7906 15.5714 36.1035 17.1429 36.1035 19.1333ZM63.3285 19.1333C71.7776 22.5905 72.0905 22.8 72.0905 26.1524C72.0905 29.4 71.7776 29.6095 63.7457 32.9619C59.1561 34.9524 55.088 36.5238 54.6707 36.5238C54.1492 36.5238 53.8362 34.9524 53.8362 33.0667C53.8362 29.9238 54.2535 29.4 58.0087 28.1429C60.3035 27.4095 62.1811 26.4667 62.1811 26.0476C62.1811 25.6286 60.3035 24.7905 58.0087 24.0571C54.1492 22.9048 53.8362 22.4857 53.8362 19.2381C53.8362 17.2476 53.9406 15.5714 54.1492 15.5714C54.3578 15.5714 58.4259 17.1429 63.3285 19.1333Z" fill="#557DAC"/>
</svg>
